<svg width="362" height="56" viewBox="0 0 362 56" fill="none" xmlns="http://www.w3.org/2000/svg">
<rect width="360" height="56" fill="#F2F2F2"/>
<path d="M41 27C43.3941 27 45.3333 25.0608 45.3333 22.6667C45.3333 20.2725 43.3941 18.3333 41 18.3333C38.6058 18.3333 36.6666 20.2725 36.6666 22.6667C36.6666 25.0608 38.6058 27 41 27ZM41 29.1667C38.1075 29.1667 32.3333 30.6183 32.3333 33.5V35.6667H49.6666V33.5C49.6666 30.6183 43.8925 29.1667 41 29.1667Z" fill="#696969"/>
<path d="M34.4454 45.04H31.9154V48H31.4054V41.22H34.5554C36.202 41.22 37.0254 41.8667 37.0254 43.16C37.0254 43.8133 36.7454 44.3033 36.1854 44.63C35.7254 44.9033 35.1454 45.04 34.4454 45.04ZM34.6154 41.69H31.9154V44.57H34.6254C35.1387 44.57 35.5687 44.4567 35.9154 44.23C36.3087 43.9767 36.5054 43.62 36.5054 43.16C36.5054 42.18 35.8754 41.69 34.6154 41.69ZM37.8063 45.74C37.873 47.0067 38.543 47.64 39.8163 47.64C40.783 47.64 41.4196 47.2433 41.7263 46.45H42.2463C42.053 47.0767 41.723 47.5167 41.2563 47.77C40.8496 47.9967 40.363 48.11 39.7963 48.11C38.9763 48.11 38.3496 47.8733 37.9163 47.4C37.5096 46.96 37.3063 46.35 37.3063 45.57C37.3063 44.8033 37.5363 44.1833 37.9963 43.71C38.463 43.2367 39.0796 43 39.8463 43C40.613 43 41.2263 43.2167 41.6863 43.65C42.1463 44.0767 42.3763 44.6533 42.3763 45.38V45.73L37.8063 45.74ZM39.8463 43.47C39.2796 43.47 38.813 43.63 38.4463 43.95C38.0863 44.27 37.8763 44.71 37.8163 45.27H41.8163C41.783 44.71 41.5863 44.27 41.2263 43.95C40.873 43.63 40.413 43.47 39.8463 43.47ZM43.8302 44.27C43.5369 44.73 43.3902 45.32 43.3902 46.04V48H42.8802V43.11H43.3902V43.94C43.4902 43.7933 43.6169 43.6567 43.7702 43.53C44.2102 43.1767 44.7935 43 45.5202 43V43.47C44.7402 43.47 44.1769 43.7367 43.8302 44.27ZM47.0138 43.23V43.55H48.1238V44.03H47.0138V48.01H46.5038V44.03H45.7838V43.55H46.5038V43.23C46.5038 41.97 47.3505 41.34 49.0438 41.34V41.8C47.6905 41.8 47.0138 42.2767 47.0138 43.23ZM48.9698 42.23C48.8631 42.23 48.7831 42.1633 48.7298 42.03V41.33C48.7898 41.1967 48.8698 41.13 48.9698 41.13C49.0498 41.13 49.1398 41.19 49.2398 41.31V42.05C49.1465 42.17 49.0565 42.23 48.9698 42.23ZM48.7298 48V43.04H49.2398V48H48.7298ZM50.0872 48V41.22H50.5972V48H50.0872Z" fill="#4F4F4F"/>
<path fill-rule="evenodd" clip-rule="evenodd" d="M228.028 10.395C228.028 10.1564 228.177 10 228.366 10C228.516 10 228.705 10.1564 228.705 10.395V12.3618H232.805C232.919 12.3618 233.033 12.4399 233.108 12.4811L234.914 14.4479C235.029 14.5672 235.029 14.8387 234.914 14.9581L233.108 16.966C232.994 17.0442 232.919 17.0442 232.805 17.0442H228.705V17.9494H232.915C233.104 17.9494 233.254 18.0687 233.254 18.2662C233.254 18.4225 233.214 18.4637 233.14 18.5007L231.562 20.27L233.14 21.9199C233.329 22.1174 233.329 22.352 233.14 22.4713C233.104 22.5124 233.029 22.5906 232.915 22.5906H228.705V30.6922C230.172 30.7333 231.526 30.9679 232.502 31.3588C233.667 31.8319 234.383 32.5396 234.383 33.3255C234.383 34.1526 233.667 34.8191 232.502 35.2923C231.447 35.7655 229.944 36 228.366 36C226.749 36 225.281 35.7655 224.191 35.2923C222.987 34.8191 222.31 34.1526 222.31 33.3255C222.31 32.5396 222.987 31.8319 224.191 31.3588C225.206 30.9638 226.56 30.7292 228.028 30.6922V22.5865H224.191C224.077 22.5865 223.967 22.5083 223.927 22.4672L222.086 20.4592C221.971 20.3399 221.971 20.1465 222.086 20.0272L223.967 18.0605C224.041 17.9411 224.081 17.9411 224.191 17.9411H228.028V17.0359H224.077C223.927 17.0359 223.738 16.9166 223.738 16.6821C223.738 16.5257 223.813 16.4846 223.853 16.4064L225.431 14.7153L223.853 13.0283C223.664 12.872 223.664 12.5963 223.853 12.477C223.927 12.4358 223.967 12.3577 224.077 12.3577H228.028V10.395ZM228.705 31.3958V33.2432C228.705 33.4407 228.516 33.5971 228.366 33.5971C228.177 33.5971 228.028 33.4407 228.028 33.2432V31.3958C226.599 31.4369 225.356 31.6715 224.415 32.0665C223.549 32.4203 222.987 32.8153 222.987 33.3255C222.987 33.7987 223.549 34.2678 224.415 34.6216C225.431 35.0536 226.824 35.2882 228.366 35.2882C229.909 35.2882 231.263 35.0536 232.242 34.6216C233.144 34.2678 233.71 33.7946 233.71 33.3255C233.71 32.8153 233.144 32.4203 232.242 32.0665C231.337 31.6715 230.098 31.4328 228.705 31.3958Z" fill="#696969"/>
<path d="M213.873 48V42.18L210.923 48H210.513L207.553 42.18V48H207.043V41.22H207.623L210.713 47.31L213.813 41.22H214.383V48H213.873ZM215.486 42.23C215.38 42.23 215.3 42.1633 215.246 42.03V41.33C215.306 41.1967 215.386 41.13 215.486 41.13C215.566 41.13 215.656 41.19 215.756 41.31V42.05C215.663 42.17 215.573 42.23 215.486 42.23ZM215.246 48V43.04H215.756V48H215.246ZM218.664 48.13C217.177 48.13 216.434 47.4633 216.434 46.13H216.964C216.964 46.6567 217.1 47.04 217.374 47.28C217.647 47.52 218.08 47.64 218.674 47.64C219.074 47.64 219.404 47.5767 219.664 47.45C219.984 47.2833 220.144 47.0367 220.144 46.71C220.144 46.31 219.81 46.0333 219.144 45.88C219.097 45.8667 218.764 45.8133 218.144 45.72C217.144 45.5667 216.644 45.1333 216.644 44.42C216.644 43.9533 216.844 43.59 217.244 43.33C217.584 43.1033 218 42.99 218.494 42.99C219.927 42.99 220.644 43.5833 220.644 44.77H220.104C220.104 44.3167 219.98 43.99 219.734 43.79C219.487 43.5833 219.09 43.48 218.544 43.48C218.177 43.48 217.867 43.5533 217.614 43.7C217.32 43.8733 217.174 44.1133 217.174 44.42C217.174 44.82 217.5 45.0767 218.154 45.19C218.327 45.2233 218.68 45.2867 219.214 45.38C220.187 45.5467 220.674 45.99 220.674 46.71C220.674 47.2167 220.454 47.5933 220.014 47.84C219.66 48.0333 219.21 48.13 218.664 48.13ZM229.492 44.69C230.192 44.9633 230.542 45.4933 230.542 46.28V48H230.032V46.3C230.032 45.4133 229.412 44.97 228.172 44.97H225.502V48H224.992V41.22H228.262C229.849 41.22 230.642 41.8133 230.642 43C230.642 43.8267 230.259 44.39 229.492 44.69ZM228.282 41.69H225.502V44.48H228.122C228.696 44.48 229.156 44.3733 229.502 44.16C229.922 43.9067 230.132 43.53 230.132 43.03C230.132 42.1367 229.516 41.69 228.282 41.69ZM235.278 48.01V47.33C234.885 47.85 234.288 48.11 233.488 48.11C232.862 48.11 232.365 47.96 231.998 47.66C231.612 47.3333 231.418 46.8767 231.418 46.29V43.12H231.928V46.28C231.928 47.1867 232.448 47.64 233.488 47.64C234.088 47.64 234.542 47.4667 234.848 47.12C235.135 46.7933 235.278 46.34 235.278 45.76V43.12H235.788V48.01H235.278ZM237.802 43.8V48H237.312L237.292 43.8H236.302V43.33H237.292V41.86H237.802V43.33H238.812V43.8H237.802ZM243.499 48.01V47.13C243.052 47.7833 242.376 48.11 241.469 48.11C240.696 48.11 240.086 47.8633 239.639 47.37C239.219 46.9033 239.009 46.3033 239.009 45.57C239.009 44.8167 239.222 44.2067 239.649 43.74C240.096 43.2467 240.716 43 241.509 43C242.402 43 243.066 43.3167 243.499 43.95V43.02H244.009V48.01H243.499ZM242.989 44.05C242.629 43.6633 242.119 43.47 241.459 43.47C240.846 43.47 240.359 43.6767 239.999 44.09C239.672 44.4767 239.509 44.97 239.509 45.57C239.509 46.1767 239.672 46.6667 239.999 47.04C240.346 47.44 240.832 47.64 241.459 47.64C242.079 47.64 242.572 47.4433 242.939 47.05C243.312 46.6567 243.499 46.1633 243.499 45.57C243.499 44.93 243.329 44.4233 242.989 44.05ZM247.004 48.13C245.517 48.13 244.774 47.4633 244.774 46.13H245.304C245.304 46.6567 245.44 47.04 245.714 47.28C245.987 47.52 246.42 47.64 247.014 47.64C247.414 47.64 247.744 47.5767 248.004 47.45C248.324 47.2833 248.484 47.0367 248.484 46.71C248.484 46.31 248.15 46.0333 247.484 45.88C247.437 45.8667 247.104 45.8133 246.484 45.72C245.484 45.5667 244.984 45.1333 244.984 44.42C244.984 43.9533 245.184 43.59 245.584 43.33C245.924 43.1033 246.34 42.99 246.834 42.99C248.267 42.99 248.984 43.5833 248.984 44.77H248.444C248.444 44.3167 248.32 43.99 248.074 43.79C247.827 43.5833 247.43 43.48 246.884 43.48C246.517 43.48 246.207 43.5533 245.954 43.7C245.66 43.8733 245.514 44.1133 245.514 44.42C245.514 44.82 245.84 45.0767 246.494 45.19C246.667 45.2233 247.02 45.2867 247.554 45.38C248.527 45.5467 249.014 45.99 249.014 46.71C249.014 47.2167 248.794 47.5933 248.354 47.84C248 48.0333 247.55 48.13 247.004 48.13Z" fill="#4F4F4F"/>
<path fill-rule="evenodd" clip-rule="evenodd" d="M128.223 19.0351C128.025 19.7832 127.947 20.4902 128.025 21.1561C128.145 21.8631 128.457 22.4921 129.045 23.0429C129.674 23.6307 130.578 24.1445 131.951 24.5761C133.287 25.0077 135.054 25.3243 137.295 25.5216H137.414L137.455 25.5627L137.533 25.6038C138.084 26.1546 138.474 26.7013 138.635 27.174C138.873 27.7248 138.91 28.2345 138.713 28.7073C138.557 29.18 138.24 29.6116 137.772 29.9651C137.381 30.2775 136.945 30.594 136.358 30.8283C137.381 31.4983 138.281 31.967 139.149 32.3205C140.09 32.674 140.957 32.8302 141.742 32.8302C142.569 32.8302 143.313 32.674 143.983 32.3986C144.731 32.1232 145.36 31.6915 145.985 31.1818L146.141 31.0626L146.338 31.1818L146.457 31.2599L146.613 31.338L146.535 31.5353C146.379 32.2424 146.26 32.8713 146.223 33.4221C146.223 33.9729 146.264 34.4045 146.379 34.7169C146.498 34.9923 146.733 35.1485 147.008 35.2678C147.362 35.3459 147.834 35.3089 148.422 35.1485C148.303 34.9142 148.106 34.5977 147.949 34.2853C147.555 33.5783 147.201 32.7521 147.201 32.3575C147.201 32.2383 147.201 32.1232 147.242 32.0039C147.242 31.8847 147.283 31.8066 147.32 31.6915C147.362 31.6134 147.399 31.4942 147.477 31.4161C147.518 31.338 147.596 31.2599 147.674 31.1818C147.752 31.1037 147.83 31.0256 147.949 30.9475C148.027 30.9064 148.147 30.8694 148.225 30.8283C148.344 30.7913 148.422 30.7502 148.537 30.7091C148.656 30.7091 148.735 30.668 148.85 30.668C148.969 30.668 149.084 30.7091 149.203 30.7091C149.322 30.7461 149.4 30.7872 149.516 30.8283C149.594 30.8694 149.713 30.9064 149.791 30.9475C149.91 31.0256 149.988 31.1037 150.066 31.1818C150.186 31.338 150.342 31.4942 150.42 31.6915C150.461 31.8108 150.498 31.8889 150.498 31.967C150.539 32.0451 150.539 32.0862 150.539 32.1643V32.2835V32.3616C150.539 33.1878 149.047 35.5473 149.047 35.5843C148.928 35.7405 149.006 35.7035 148.813 35.7816L148.615 35.8227C147.867 36.02 147.238 36.057 146.807 35.9419C146.297 35.7857 145.943 35.4692 145.746 35.0006C145.549 34.6059 145.512 34.0962 145.512 33.5084C145.553 33.1138 145.59 32.7233 145.668 32.2917C145.195 32.6082 144.686 32.8836 144.176 33.0768C143.428 33.3522 142.643 33.5495 141.738 33.5495C140.875 33.5084 139.893 33.3522 138.832 32.9617C137.809 32.5671 136.711 31.9382 135.453 31.038L135.375 30.9599L134.98 30.6845L135.412 30.5282L135.531 30.4501C136.279 30.1747 136.826 29.8623 137.258 29.5088C137.652 29.1923 137.928 28.8388 138.043 28.5264C138.162 28.1729 138.162 27.8194 138.002 27.4659C137.846 27.0754 137.529 26.6396 137.139 26.208C134.861 26.0107 133.094 25.6572 131.676 25.2256C130.262 24.794 129.238 24.2021 128.531 23.5731C127.824 22.9072 127.47 22.118 127.351 21.2959C127.195 20.4697 127.351 19.6064 127.627 18.7021V18.661C127.392 18.3075 126.879 17.4443 126.369 16.4988C125.666 15.1876 125 13.7324 125 12.9843C125 12.787 125.041 12.5897 125.078 12.3965C125.119 12.1992 125.156 12.043 125.234 11.8457C125.312 11.6483 125.391 11.4921 125.51 11.3359C125.629 11.1797 125.748 11.0235 125.904 10.9043C126.024 10.7481 126.18 10.6289 126.336 10.5097C126.533 10.3905 126.689 10.3124 126.887 10.2343C127.084 10.1562 127.24 10.1151 127.438 10.0781C127.631 10.0411 127.828 10 128.025 10C128.223 10 128.457 10.0411 128.613 10.0781C128.811 10.1192 129.008 10.1562 129.201 10.2343C129.398 10.3124 129.555 10.3905 129.711 10.5097C129.908 10.6289 130.027 10.744 130.183 10.9043C130.459 11.1386 130.656 11.4921 130.853 11.8457C130.895 12.0019 130.973 12.1622 131.01 12.3554C131.01 12.4335 131.01 12.5527 131.051 12.6308V12.8651V12.9843C131.051 14.5175 128.379 18.7597 128.338 18.8378L128.223 19.0351ZM128.025 18.0156C128.182 17.7813 128.338 17.5059 128.535 17.1894C128.732 16.8359 128.93 16.4824 129.127 16.0878C129.481 15.4219 129.834 14.7148 130.068 14.1229C130.266 13.6543 130.344 13.2597 130.344 12.9843V12.9432C130.344 12.824 130.344 12.6678 130.303 12.5116C130.262 12.3924 130.225 12.2362 130.183 12.117C130.105 11.9607 130.064 11.8415 129.986 11.7223C129.867 11.5661 129.789 11.488 129.674 11.3688C129.555 11.2496 129.439 11.1715 129.32 11.0934C129.205 11.0235 129.045 10.9454 128.93 10.8632C128.811 10.8221 128.654 10.7851 128.498 10.744C128.342 10.7029 128.186 10.7029 128.025 10.7029C127.869 10.7029 127.713 10.7029 127.594 10.744C127.438 10.7851 127.277 10.8262 127.162 10.8632C127.002 10.9454 126.887 11.0235 126.768 11.1016C126.611 11.1797 126.492 11.2578 126.414 11.377C126.295 11.4921 126.18 11.5702 126.102 11.7306C126.019 11.8457 125.941 11.9649 125.904 12.1211C125.826 12.2403 125.785 12.3965 125.748 12.5157C125.748 12.6719 125.707 12.8281 125.707 12.9884C125.707 13.2638 125.863 13.7735 126.098 14.2832C126.336 14.871 126.607 15.463 126.924 16.0919C127.199 16.5646 127.475 17.0332 127.709 17.4278C127.828 17.6621 127.947 17.8594 128.025 18.0156ZM148.85 35.1074C148.928 34.9882 149.047 34.832 149.125 34.6758C149.244 34.4785 149.359 34.2812 149.479 34.0469C149.676 33.6934 149.832 33.2988 149.988 32.9453C150.107 32.711 150.144 32.4726 150.144 32.3533V32.3164C150.144 32.2383 150.144 32.1602 150.103 32.0779C150.103 31.9998 150.103 31.9217 150.062 31.8436C150.021 31.7655 149.984 31.6874 149.943 31.6463C149.902 31.5682 149.824 31.4901 149.746 31.449C149.709 31.3709 149.627 31.3298 149.59 31.2517C149.511 31.2517 149.433 31.1736 149.355 31.1736C149.277 31.1366 149.199 31.0955 149.121 31.0955C149.043 31.0544 148.965 31.0544 148.845 31.0544C148.767 31.0544 148.689 31.0544 148.611 31.0955C148.533 31.0955 148.455 31.1366 148.377 31.1736C148.299 31.1736 148.221 31.2517 148.143 31.2517C148.064 31.3298 148.023 31.3709 147.945 31.449C147.904 31.4901 147.826 31.5682 147.789 31.6463C147.748 31.6874 147.711 31.7655 147.67 31.8436C147.629 31.9217 147.629 31.9998 147.592 32.0779C147.592 32.156 147.592 32.2341 147.592 32.3533C147.592 32.5096 147.67 32.748 147.789 33.0604C147.908 33.3728 148.064 33.7263 148.262 34.0428C148.418 34.3182 148.537 34.5936 148.693 34.7909C148.73 34.9101 148.808 35.0293 148.85 35.1074Z" fill="#696969"/>
<path fill-rule="evenodd" clip-rule="evenodd" d="M148.85 31.5723C149.125 31.5723 149.359 31.6504 149.516 31.8066C149.672 32.0039 149.75 32.2012 149.75 32.4356C149.75 32.711 149.672 32.9083 149.516 33.0645C149.359 33.2618 149.121 33.3399 148.85 33.3399C148.615 33.3399 148.377 33.2618 148.221 33.0645C148.064 32.9083 147.986 32.711 147.986 32.4356C147.986 32.2012 148.064 32.0039 148.221 31.8066C148.377 31.6504 148.615 31.5723 148.85 31.5723Z" fill="#696969"/>
<path fill-rule="evenodd" clip-rule="evenodd" d="M149.322 32.004C149.203 31.8847 149.047 31.8066 148.85 31.8066C148.693 31.8066 148.537 31.8847 148.418 32.004C148.299 32.1232 148.221 32.2794 148.221 32.4356C148.221 32.6329 148.299 32.7891 148.418 32.9083C148.537 33.0275 148.693 33.1056 148.85 33.1056C149.047 33.1056 149.203 33.0275 149.322 32.9083C149.442 32.7891 149.52 32.6329 149.52 32.4356C149.516 32.2794 149.437 32.1191 149.322 32.004Z" fill="#696969"/>
<path fill-rule="evenodd" clip-rule="evenodd" d="M128.852 12.3965C128.654 12.1992 128.379 12.043 128.025 12.043C127.713 12.043 127.438 12.1992 127.199 12.3965C127.002 12.5938 126.887 12.8692 126.887 13.1816C126.887 13.4981 127.006 13.8105 127.203 14.0078C127.438 14.2051 127.713 14.3202 128.029 14.3202C128.383 14.3202 128.658 14.201 128.856 14.0078C129.053 13.8105 129.209 13.4981 129.209 13.1816C129.205 12.8692 129.045 12.5938 128.852 12.3965Z" fill="#696969"/>
<path d="M115.064 42.72C114.557 41.9867 113.744 41.62 112.624 41.62C111.664 41.62 110.897 41.89 110.324 42.43C109.757 42.97 109.474 43.7 109.474 44.62C109.474 45.5267 109.744 46.25 110.284 46.79C110.83 47.33 111.574 47.6 112.514 47.6C113.587 47.6 114.407 47.2267 114.974 46.48L115.414 46.76C114.74 47.6333 113.777 48.07 112.524 48.07C111.43 48.07 110.564 47.7633 109.924 47.15C109.284 46.5367 108.964 45.7067 108.964 44.66C108.964 43.5867 109.294 42.7333 109.954 42.1C110.614 41.4667 111.504 41.15 112.624 41.15C113.924 41.15 114.88 41.5833 115.494 42.45L115.064 42.72ZM117.171 44.27C116.878 44.73 116.731 45.32 116.731 46.04V48H116.221V43.11H116.731V43.94C116.831 43.7933 116.958 43.6567 117.111 43.53C117.551 43.1767 118.134 43 118.861 43V43.47C118.081 43.47 117.518 43.7367 117.171 44.27ZM119.585 45.74C119.651 47.0067 120.321 47.64 121.595 47.64C122.561 47.64 123.198 47.2433 123.505 46.45H124.025C123.831 47.0767 123.501 47.5167 123.035 47.77C122.628 47.9967 122.141 48.11 121.575 48.11C120.755 48.11 120.128 47.8733 119.695 47.4C119.288 46.96 119.085 46.35 119.085 45.57C119.085 44.8033 119.315 44.1833 119.775 43.71C120.241 43.2367 120.858 43 121.625 43C122.391 43 123.005 43.2167 123.465 43.65C123.925 44.0767 124.155 44.6533 124.155 45.38V45.73L119.585 45.74ZM121.625 43.47C121.058 43.47 120.591 43.63 120.225 43.95C119.865 44.27 119.655 44.71 119.595 45.27H123.595C123.561 44.71 123.365 44.27 123.005 43.95C122.651 43.63 122.191 43.47 121.625 43.47ZM128.859 48.01V47.13C128.412 47.7833 127.735 48.11 126.829 48.11C126.055 48.11 125.445 47.8633 124.999 47.37C124.579 46.9033 124.369 46.3033 124.369 45.57C124.369 44.8167 124.582 44.2067 125.009 43.74C125.455 43.2467 126.075 43 126.869 43C127.762 43 128.425 43.3167 128.859 43.95V43.02H129.369V48.01H128.859ZM128.349 44.05C127.989 43.6633 127.479 43.47 126.819 43.47C126.205 43.47 125.719 43.6767 125.359 44.09C125.032 44.4767 124.869 44.97 124.869 45.57C124.869 46.1767 125.032 46.6667 125.359 47.04C125.705 47.44 126.192 47.64 126.819 47.64C127.439 47.64 127.932 47.4433 128.299 47.05C128.672 46.6567 128.859 46.1633 128.859 45.57C128.859 44.93 128.689 44.4233 128.349 44.05ZM131.253 44.27C130.96 44.73 130.813 45.32 130.813 46.04V48H130.303V43.11H130.813V43.94C130.913 43.7933 131.04 43.6567 131.193 43.53C131.633 43.1767 132.216 43 132.943 43V43.47C132.163 43.47 131.6 43.7367 131.253 44.27ZM141.512 44.69C142.212 44.9633 142.562 45.4933 142.562 46.28V48H142.052V46.3C142.052 45.4133 141.432 44.97 140.192 44.97H137.522V48H137.012V41.22H140.282C141.868 41.22 142.662 41.8133 142.662 43C142.662 43.8267 142.278 44.39 141.512 44.69ZM140.302 41.69H137.522V44.48H140.142C140.715 44.48 141.175 44.3733 141.522 44.16C141.942 43.9067 142.152 43.53 142.152 43.03C142.152 42.1367 141.535 41.69 140.302 41.69ZM147.298 48.01V47.33C146.904 47.85 146.308 48.11 145.508 48.11C144.881 48.11 144.384 47.96 144.018 47.66C143.631 47.3333 143.438 46.8767 143.438 46.29V43.12H143.948V46.28C143.948 47.1867 144.468 47.64 145.508 47.64C146.108 47.64 146.561 47.4667 146.868 47.12C147.154 46.7933 147.298 46.34 147.298 45.76V43.12H147.808V48.01H147.298ZM149.822 43.8V48H149.332L149.312 43.8H148.322V43.33H149.312V41.86H149.822V43.33H150.832V43.8H149.822ZM155.519 48.01V47.13C155.072 47.7833 154.395 48.11 153.489 48.11C152.715 48.11 152.105 47.8633 151.659 47.37C151.239 46.9033 151.029 46.3033 151.029 45.57C151.029 44.8167 151.242 44.2067 151.669 43.74C152.115 43.2467 152.735 43 153.529 43C154.422 43 155.085 43.3167 155.519 43.95V43.02H156.029V48.01H155.519ZM155.009 44.05C154.649 43.6633 154.139 43.47 153.479 43.47C152.865 43.47 152.379 43.6767 152.019 44.09C151.692 44.4767 151.529 44.97 151.529 45.57C151.529 46.1767 151.692 46.6667 152.019 47.04C152.365 47.44 152.852 47.64 153.479 47.64C154.099 47.64 154.592 47.4433 154.959 47.05C155.332 46.6567 155.519 46.1633 155.519 45.57C155.519 44.93 155.349 44.4233 155.009 44.05ZM159.023 48.13C157.537 48.13 156.793 47.4633 156.793 46.13H157.323C157.323 46.6567 157.46 47.04 157.733 47.28C158.007 47.52 158.44 47.64 159.033 47.64C159.433 47.64 159.763 47.5767 160.023 47.45C160.343 47.2833 160.503 47.0367 160.503 46.71C160.503 46.31 160.17 46.0333 159.503 45.88C159.457 45.8667 159.123 45.8133 158.503 45.72C157.503 45.5667 157.003 45.1333 157.003 44.42C157.003 43.9533 157.203 43.59 157.603 43.33C157.943 43.1033 158.36 42.99 158.853 42.99C160.287 42.99 161.003 43.5833 161.003 44.77H160.463C160.463 44.3167 160.34 43.99 160.093 43.79C159.847 43.5833 159.45 43.48 158.903 43.48C158.537 43.48 158.227 43.5533 157.973 43.7C157.68 43.8733 157.533 44.1133 157.533 44.42C157.533 44.82 157.86 45.0767 158.513 45.19C158.687 45.2233 159.04 45.2867 159.573 45.38C160.547 45.5467 161.033 45.99 161.033 46.71C161.033 47.2167 160.813 47.5933 160.373 47.84C160.02 48.0333 159.57 48.13 159.023 48.13Z" fill="#4F4F4F"/>
<path d="M325.5 27.42C324.677 27.42 323.94 27.745 323.377 28.2542L315.653 23.7583C315.707 23.5092 315.75 23.26 315.75 23C315.75 22.74 315.707 22.4908 315.653 22.2417L323.29 17.7892C323.875 18.3308 324.644 18.6667 325.5 18.6667C327.298 18.6667 328.75 17.215 328.75 15.4167C328.75 13.6183 327.298 12.1667 325.5 12.1667C323.702 12.1667 322.25 13.6183 322.25 15.4167C322.25 15.6767 322.293 15.9258 322.348 16.175L314.71 20.6275C314.125 20.0858 313.356 19.75 312.5 19.75C310.702 19.75 309.25 21.2017 309.25 23C309.25 24.7983 310.702 26.25 312.5 26.25C313.356 26.25 314.125 25.9142 314.71 25.3725L322.423 29.8792C322.369 30.1067 322.337 30.345 322.337 30.5833C322.337 32.3275 323.756 33.7467 325.5 33.7467C327.244 33.7467 328.663 32.3275 328.663 30.5833C328.663 28.8392 327.244 27.42 325.5 27.42Z" fill="#696969"/>
<path d="M303.734 42.72C303.228 41.9867 302.414 41.62 301.294 41.62C300.334 41.62 299.568 41.89 298.994 42.43C298.428 42.97 298.144 43.7 298.144 44.62C298.144 45.5267 298.414 46.25 298.954 46.79C299.501 47.33 300.244 47.6 301.184 47.6C302.258 47.6 303.078 47.2267 303.644 46.48L304.084 46.76C303.411 47.6333 302.448 48.07 301.194 48.07C300.101 48.07 299.234 47.7633 298.594 47.15C297.954 46.5367 297.634 45.7067 297.634 44.66C297.634 43.5867 297.964 42.7333 298.624 42.1C299.284 41.4667 300.174 41.15 301.294 41.15C302.594 41.15 303.551 41.5833 304.164 42.45L303.734 42.72ZM307.182 48.11C306.389 48.11 305.759 47.8733 305.292 47.4C304.832 46.9267 304.602 46.3133 304.602 45.56C304.602 44.78 304.839 44.16 305.312 43.7C305.792 43.2333 306.422 43 307.202 43C307.982 43 308.605 43.2333 309.072 43.7C309.545 44.16 309.782 44.78 309.782 45.56C309.782 46.34 309.542 46.96 309.062 47.42C308.589 47.88 307.962 48.11 307.182 48.11ZM308.722 44.05C308.355 43.6633 307.845 43.47 307.192 43.47C306.552 43.47 306.045 43.66 305.672 44.04C305.299 44.4133 305.112 44.92 305.112 45.56C305.112 46.1933 305.299 46.7 305.672 47.08C306.052 47.4533 306.559 47.64 307.192 47.64C307.825 47.64 308.329 47.4533 308.702 47.08C309.082 46.7 309.272 46.1933 309.272 45.56C309.272 44.9333 309.089 44.43 308.722 44.05ZM317.131 48V44.81C317.131 43.9167 316.698 43.47 315.831 43.47C315.351 43.47 314.968 43.6033 314.681 43.87C314.394 44.1367 314.251 44.4933 314.251 44.94V48H313.741V44.81C313.741 43.9167 313.298 43.47 312.411 43.47C311.911 43.47 311.518 43.6533 311.231 44.02C310.978 44.3533 310.851 44.7667 310.851 45.26V48H310.341V43.11H310.851V43.75C311.224 43.25 311.778 43 312.511 43C313.264 43 313.788 43.2867 314.081 43.86C314.414 43.2867 314.991 43 315.811 43C317.031 43 317.641 43.5733 317.641 44.72V48H317.131ZM321.015 48.18C320.128 48.18 319.465 47.86 319.025 47.22V49.68H318.515V43.11H319.025V43.96C319.465 43.32 320.125 43 321.005 43C321.798 43 322.418 43.2433 322.865 43.73C323.285 44.1967 323.495 44.81 323.495 45.57C323.495 46.3633 323.278 46.9967 322.845 47.47C322.412 47.9433 321.802 48.18 321.015 48.18ZM322.505 44.09C322.158 43.6767 321.678 43.47 321.065 43.47C320.445 43.47 319.948 43.6633 319.575 44.05C319.208 44.43 319.025 44.9333 319.025 45.56C319.025 46.2267 319.188 46.7433 319.515 47.11C319.862 47.51 320.375 47.71 321.055 47.71C321.682 47.71 322.168 47.5033 322.515 47.09C322.835 46.7033 322.995 46.2 322.995 45.58C322.995 44.9733 322.832 44.4767 322.505 44.09ZM328.359 48.01V47.13C327.913 47.7833 327.236 48.11 326.329 48.11C325.556 48.11 324.946 47.8633 324.499 47.37C324.079 46.9033 323.869 46.3033 323.869 45.57C323.869 44.8167 324.083 44.2067 324.509 43.74C324.956 43.2467 325.576 43 326.369 43C327.263 43 327.926 43.3167 328.359 43.95V43.02H328.869V48.01H328.359ZM327.849 44.05C327.489 43.6633 326.979 43.47 326.319 43.47C325.706 43.47 325.219 43.6767 324.859 44.09C324.533 44.4767 324.369 44.97 324.369 45.57C324.369 46.1767 324.533 46.6667 324.859 47.04C325.206 47.44 325.693 47.64 326.319 47.64C326.939 47.64 327.433 47.4433 327.799 47.05C328.173 46.6567 328.359 46.1633 328.359 45.57C328.359 44.93 328.189 44.4233 327.849 44.05ZM330.754 44.27C330.461 44.73 330.314 45.32 330.314 46.04V48H329.804V43.11H330.314V43.94C330.414 43.7933 330.541 43.6567 330.694 43.53C331.134 43.1767 331.717 43 332.444 43V43.47C331.664 43.47 331.101 43.7367 330.754 44.27ZM334.118 43.8V48H333.628L333.608 43.8H332.618V43.33H333.608V41.86H334.118V43.33H335.128V43.8H334.118ZM335.855 42.23C335.748 42.23 335.668 42.1633 335.615 42.03V41.33C335.675 41.1967 335.755 41.13 335.855 41.13C335.935 41.13 336.025 41.19 336.125 41.31V42.05C336.031 42.17 335.941 42.23 335.855 42.23ZM335.615 48V43.04H336.125V48H335.615ZM337.922 44.27C337.629 44.73 337.482 45.32 337.482 46.04V48H336.972V43.11H337.482V43.94C337.582 43.7933 337.709 43.6567 337.862 43.53C338.302 43.1767 338.885 43 339.612 43V43.47C338.832 43.47 338.269 43.7367 337.922 44.27Z" fill="#4F4F4F"/>
</svg>
