<svg width="126" height="96" viewBox="0 0 126 96" fill="none" xmlns="http://www.w3.org/2000/svg">
<path d="M118.297 22.2892H102.777C100.557 22.2892 98.757 24.0892 98.757 26.3092V31.8992C98.757 32.7192 99.007 33.5192 99.477 34.1892L114.997 56.5892C117.237 59.8292 122.327 58.2392 122.327 54.2992V26.3192C122.327 24.0892 120.527 22.2892 118.297 22.2892Z" fill="#39A935"/>
<path d="M11.427 82.8792L57.047 46.9592C59.617 44.9292 63.517 44.9192 66.097 46.9392L113.817 84.0592C119.797 88.7092 128.427 82.0792 123.977 76.2592L67.847 2.70921C65.157 -0.820793 59.237 -0.820793 56.547 2.70921L1.227 75.1092C-3.233 80.9392 5.45701 87.5792 11.427 82.8792Z" fill="#39A935"/>
<path d="M56.947 2.41923C59.587 -1.03077 65.497 -0.740769 67.627 2.96923C74.067 14.1692 81.117 34.8392 54.387 45.5292C5.08699 65.2592 1.41699 75.0992 1.41699 75.0992L56.947 2.41923Z" fill="#319B29"/>
<path d="M104.217 22.2892C100.777 22.2892 98.927 26.3092 101.137 28.9292C102.537 30.5892 104.777 32.0692 108.317 32.6292C114.857 33.6692 118.847 41.6292 120.817 46.9692C121.117 47.7892 122.327 47.5692 122.327 46.6992V26.3192C122.327 24.0892 120.527 22.2892 118.297 22.2892H104.217Z" fill="#319B29"/>
<path d="M58.997 92.6492C58.997 94.0392 57.867 95.1592 56.487 95.1592H50.387C48.997 95.1592 47.877 94.0292 47.877 92.6492V86.5492C47.877 85.1592 49.007 84.0392 50.387 84.0392H56.487C57.877 84.0392 58.997 85.1692 58.997 86.5492V92.6492Z" fill="#666661"/>
<path d="M58.997 76.4792C58.997 77.8692 57.867 78.9892 56.487 78.9892H50.387C48.997 78.9892 47.877 77.8592 47.877 76.4792V70.3792C47.877 68.9892 49.007 67.8692 50.387 67.8692H56.487C57.877 67.8692 58.997 68.9992 58.997 70.3792V76.4792Z" fill="#666661"/>
<path d="M77.3571 92.6492C77.3571 94.0392 76.227 95.1592 74.847 95.1592H68.747C67.357 95.1592 66.2371 94.0292 66.2371 92.6492V86.5492C66.2371 85.1592 67.367 84.0392 68.747 84.0392H74.847C76.237 84.0392 77.3571 85.1692 77.3571 86.5492V92.6492Z" fill="#666661"/>
<path d="M77.3571 76.4792C77.3571 77.8692 76.227 78.9892 74.847 78.9892H68.747C67.357 78.9892 66.2371 77.8592 66.2371 76.4792V70.3792C66.2371 68.9892 67.367 67.8692 68.747 67.8692H74.847C76.237 67.8692 77.3571 68.9992 77.3571 70.3792V76.4792Z" fill="#666661"/>
</svg>
