<svg width="197" height="338" viewBox="0 0 197 338" fill="none" xmlns="http://www.w3.org/2000/svg">
<g clip-path="url(#clip0)">
<path d="M91.64 143.88C87.81 143.88 84.78 145.33 82.53 148.24C80.49 150.96 79.47 154.43 79.47 158.65C79.47 162.92 80.49 166.36 82.53 168.99C84.69 171.8 87.73 173.21 91.64 173.21C95.51 173.21 98.6 171.83 100.91 169.06C103.22 166.29 104.37 162.82 104.37 158.65C104.37 154.15 103.31 150.59 101.19 147.96C98.94 145.24 95.76 143.88 91.64 143.88Z" fill="white"/>
<path d="M143.87 143.88C140.33 143.88 137.43 145.01 135.17 147.26C132.9 149.51 131.58 152.61 131.21 156.54H156.17C155.96 152.6 154.74 149.51 152.52 147.26C150.28 145.01 147.4 143.88 143.87 143.88Z" fill="white"/>
<path d="M98.1 0C44.06 0 0 44.06 0 98.11C0 183.28 98.1 337.19 98.1 337.19C98.1 337.19 196.2 181.52 196.2 98.11C196.2 44.06 152.14 0 98.1 0ZM36.54 54.2C36.54 41.43 46.89 31.07 59.67 31.07H136.3C149.07 31.07 159.43 41.42 159.43 54.2V101.81C159.43 114.58 149.08 124.94 136.3 124.94H59.67C46.9 124.94 36.54 114.59 36.54 101.81V54.2V54.2ZM67.31 173.63C64.19 175.37 60.43 176.23 56.02 176.23C50.57 176.23 46.2 175.13 42.92 172.92C38.8 170.25 36.74 166.05 36.74 160.33V158.64H39.92V160.05C39.92 168.63 45.31 172.92 56.08 172.92C59.78 172.92 62.88 172.29 65.38 171.02C68.58 169.38 70.18 166.85 70.18 163.42C70.18 161.03 69.6 159.2 68.43 157.93C67.47 156.9 65.83 155.98 63.5 155.19C62.25 154.82 59.3 154.06 54.64 152.94C49.27 151.67 45.66 150.5 43.78 149.42C39.99 147.26 38.1 144.05 38.1 139.78C38.1 131.62 43.67 127.54 54.82 127.54C66.47 127.54 72.35 132.65 72.48 142.87H69.36C69.11 137.95 67.61 134.64 64.87 132.95C62.62 131.54 59.27 130.84 54.82 130.84C45.79 130.84 41.28 133.82 41.28 139.77C41.28 142.68 42.51 144.86 44.96 146.31C46.67 147.29 49.56 148.21 53.63 149.05C61.2 150.55 66.25 152.17 68.79 153.9C71.83 155.96 73.34 159.2 73.34 163.61C73.36 168.05 71.34 171.38 67.31 173.63ZM107.55 175.81H104.37V169.62C101.58 174.22 97.36 176.51 91.7 176.51C86.87 176.51 83.07 174.78 80.28 171.31C77.66 168.03 76.35 163.81 76.35 158.65C76.35 153.35 77.68 149.06 80.34 145.78C83.13 142.31 86.99 140.58 91.95 140.58C97.52 140.58 101.66 142.81 104.37 147.26V140.72H107.55V175.81V175.81ZM126.21 147.82H119.28V175.81H116.1V147.82H111.61V144.44H116.1V142.19C116.1 133.33 121.38 128.9 131.95 128.9V132.14C123.51 132.14 119.28 135.49 119.28 142.2V144.45H126.21V147.82V147.82ZM159.65 159.78L131.14 159.85C131.56 168.76 135.74 173.21 143.68 173.21C149.71 173.21 153.68 170.42 155.6 164.84H158.84C157.63 169.25 155.57 172.34 152.66 174.12C150.12 175.71 147.09 176.51 143.55 176.51C138.43 176.51 134.52 174.85 131.82 171.52C129.28 168.43 128.01 164.14 128.01 158.65C128.01 153.26 129.45 148.9 132.35 145.57C135.24 142.24 139.08 140.58 143.86 140.58C148.64 140.58 152.47 142.09 155.34 145.12C158.21 148.14 159.65 152.21 159.65 157.32V159.78Z" fill="white"/>
<path d="M59.67 124.94H136.3C149.07 124.94 159.43 114.59 159.43 101.81V54.2C159.43 41.43 149.08 31.07 136.3 31.07H59.67C46.9 31.07 36.54 41.42 36.54 54.2V101.81C36.54 114.58 46.9 124.94 59.67 124.94ZM116.97 67.3C120.32 65.91 124.01 65.2 127.92 65.2C131.83 65.2 135.51 65.9 138.87 67.3C142.22 68.69 145.17 70.64 147.63 73.1C150.09 75.56 152.04 78.52 153.43 81.9C154.82 85.28 155.52 89.02 155.52 93.02C155.52 97.03 154.82 100.77 153.43 104.14C152.04 107.52 150.09 110.48 147.63 112.94C145.17 115.4 142.22 117.35 138.87 118.74C135.52 120.13 131.83 120.83 127.92 120.83C124.01 120.83 120.33 120.13 116.97 118.74C113.62 117.35 110.67 115.4 108.21 112.94C105.75 110.48 103.79 107.52 102.41 104.14C101.02 100.77 100.32 97.02 100.32 93.02C100.32 89.01 101.02 85.27 102.41 81.9C103.8 78.53 105.75 75.57 108.21 73.1C110.67 70.65 113.61 68.7 116.97 67.3ZM75.97 53.3L76.13 53.25C76.75 53.07 77.37 52.9 77.98 52.74C78.6 52.57 79.22 52.4 79.84 52.24L81.7 51.76C82.32 51.6 82.94 51.45 83.57 51.29C84.81 50.98 86.06 50.69 87.31 50.39C88.05 50.22 88.79 50.06 89.52 49.89C88.13 48.49 87.27 46.57 87.27 44.44C87.27 40.18 90.73 36.72 94.99 36.72C99.25 36.72 102.71 40.18 102.71 44.44C102.71 48.7 99.25 52.16 94.99 52.16C94.31 52.16 93.65 52.06 93.02 51.9V51.91L91.26 56C90.66 57.35 90.07 58.71 89.46 60.06C88.85 61.41 88.25 62.76 87.62 64.11L86.68 66.13L85.73 68.14C84.45 70.82 83.15 73.48 81.79 76.12C81.11 77.44 80.42 78.76 79.71 80.07C79.01 81.38 78.28 82.68 77.53 83.97C77.94 82.53 78.37 81.11 78.82 79.69C79.27 78.27 79.74 76.86 80.22 75.46C81.18 72.65 82.19 69.86 83.22 67.08L84 65L84.8 62.93C85.33 61.55 85.89 60.17 86.43 58.79C86.98 57.41 87.55 56.05 88.1 54.67L88.54 53.61C88.36 53.65 88.19 53.69 88.01 53.72C86.75 53.97 85.5 54.22 84.24 54.45C83.61 54.57 82.98 54.69 82.35 54.8L80.46 55.13C79.83 55.24 79.19 55.34 78.56 55.45C78.04 55.54 77.51 55.62 76.99 55.7L76.2 56.47L75.05 57.57C74.67 57.94 74.28 58.3 73.89 58.66C73.5 59.02 73.11 59.38 72.72 59.74C72.33 60.1 71.93 60.46 71.54 60.81C71.14 61.17 70.74 61.52 70.34 61.87C69.54 62.57 68.72 63.26 67.88 63.93C68.46 63.03 69.07 62.15 69.68 61.28C69.99 60.84 70.3 60.41 70.61 59.98C70.92 59.55 71.24 59.12 71.55 58.69C71.87 58.26 72.18 57.84 72.51 57.41C72.83 56.99 73.15 56.56 73.48 56.14L74.46 54.88L75.45 53.63C75.59 53.47 75.77 53.36 75.97 53.3ZM67.06 50.34C67.96 50.25 68.86 50.21 69.77 50.21C70.67 50.21 71.57 50.25 72.48 50.34C73.38 50.43 74.28 50.56 75.19 50.81C74.29 51.06 73.39 51.19 72.48 51.28C71.58 51.37 70.68 51.41 69.77 51.41C68.87 51.41 67.97 51.37 67.06 51.28C66.16 51.19 65.26 51.06 64.35 50.8C65.25 50.57 66.15 50.44 67.06 50.34ZM61.64 56.39C62.54 56.3 63.44 56.26 64.35 56.26C65.25 56.26 66.15 56.3 67.06 56.39C67.96 56.48 68.86 56.61 69.77 56.86C68.87 57.11 67.97 57.24 67.06 57.33C66.16 57.42 65.26 57.46 64.35 57.46C63.45 57.46 62.55 57.42 61.64 57.33C60.74 57.24 59.84 57.11 58.93 56.85C59.84 56.62 60.74 56.49 61.64 56.39ZM42.44 83.72C44.15 78.33 47.59 73.58 52.01 70.35C54.22 68.72 56.66 67.47 59.21 66.63C61.76 65.8 64.42 65.4 67.02 65.43C67.67 65.44 68.32 65.48 68.96 65.54C69.28 65.57 69.6 65.61 69.92 65.65C70.26 65.68 70.57 65.71 70.89 65.75C72.15 65.9 73.39 66.12 74.61 66.42C75.83 66.72 77.04 67.09 78.19 67.57C79.35 68.05 80.46 68.63 81.46 69.37C80.35 68.82 79.19 68.44 78.01 68.15C76.83 67.87 75.63 67.68 74.42 67.57C73.22 67.46 72.01 67.41 70.81 67.43C70.51 67.44 70.21 67.44 69.93 67.47C69.63 67.52 69.34 67.56 69.04 67.62C68.45 67.72 67.87 67.86 67.3 68C62.72 69.14 58.69 71.5 55.61 74.62C54.07 76.18 52.76 77.93 51.72 79.81C50.68 81.68 49.91 83.68 49.44 85.72C48.48 89.81 48.69 94.14 50.01 98.05C51.32 101.97 53.75 105.51 56.96 108.17C60.17 110.83 64.14 112.61 68.4 113.2C72.67 113.81 77.17 113.23 81.35 111.42C82.39 110.97 83.42 110.45 84.41 109.84C85.41 109.25 86.36 108.56 87.29 107.83C88.74 106.66 90.09 105.33 91.33 103.84C91.32 102.7 91.32 101.57 91.35 100.43C91.4 97.78 91.55 95.14 91.76 92.51C91.86 91.23 91.99 89.95 92.13 88.68C89.86 88.75 87.57 88.75 85.28 88.64C83.42 88.56 81.56 88.4 79.69 88.17C78.75 88.05 77.82 87.91 76.88 87.74C75.94 87.57 75 87.38 74.05 87.12C74.93 86.68 75.82 86.32 76.71 85.98C77.6 85.63 78.5 85.32 79.39 85.03C81.18 84.45 82.99 83.95 84.79 83.52C88.41 82.65 92.04 82.04 95.7 81.62C97.55 81.4 99.23 82.73 99.44 84.58C99.47 84.82 99.47 85.06 99.45 85.29L99.43 85.44C99.17 88.06 98.84 90.68 98.44 93.29C98.04 95.9 97.57 98.5 97.01 101.09C96.45 103.68 95.81 106.26 95.05 108.83C94.67 110.11 94.27 111.39 93.82 112.67L93.48 113.63L93.12 114.58C92.87 115.21 92.62 115.85 92.33 116.48C92.19 115.8 92.1 115.12 92 114.45L91.87 113.44L91.76 112.43C91.62 111.09 91.52 109.75 91.45 108.41C91.4 107.36 91.37 106.31 91.35 105.26C90.71 106.71 89.92 108.11 88.97 109.42C88.21 110.47 87.35 111.46 86.42 112.4C85.48 113.32 84.46 114.18 83.37 114.95C81.19 116.5 78.73 117.71 76.11 118.51C73.49 119.31 70.72 119.69 67.95 119.64C65.17 119.59 62.37 119.1 59.7 118.18C57.03 117.26 54.5 115.92 52.23 114.22C51.66 113.79 51.11 113.35 50.57 112.88C50.04 112.41 49.52 111.92 49.02 111.41C48.02 110.39 47.11 109.3 46.28 108.14C44.62 105.82 43.33 103.24 42.45 100.52C40.71 95.05 40.71 89.11 42.44 83.72Z" fill="#3AAA35"/>
<path d="M113.09 78.09C111.35 80.03 110.01 82.31 109.09 84.88C108.17 87.45 107.7 90.21 107.7 93.07C107.7 95.93 108.17 98.68 109.09 101.26C110.01 103.82 111.35 106.09 113.09 108.01C114.82 109.92 116.97 111.47 119.46 112.61C121.95 113.75 124.79 114.33 127.91 114.33C131.03 114.33 133.87 113.75 136.36 112.61C138.85 111.47 141 109.92 142.73 108.01C144.47 106.09 145.81 103.82 146.73 101.26C147.65 98.68 148.12 95.93 148.12 93.07C148.12 90.21 147.65 87.46 146.73 84.88C145.81 82.32 144.47 80.03 142.73 78.09C140.99 76.15 138.85 74.59 136.36 73.45C133.87 72.31 131.03 71.73 127.91 71.73C124.79 71.73 121.95 72.31 119.46 73.45C116.97 74.59 114.83 76.15 113.09 78.09Z" fill="#3AAA35"/>
<path d="M91.36 105.24C91.38 106.29 91.41 107.34 91.46 108.39C91.53 109.73 91.63 111.06 91.77 112.41L91.88 113.42L92.01 114.43C92.11 115.11 92.2 115.78 92.34 116.46C92.63 115.83 92.88 115.2 93.13 114.56L93.49 113.61L93.83 112.65C94.28 111.38 94.68 110.09 95.06 108.81C95.81 106.24 96.46 103.66 97.02 101.07C97.58 98.48 98.05 95.88 98.45 93.27C98.85 90.66 99.18 88.04 99.44 85.42L99.46 85.27C99.48 85.04 99.48 84.8 99.45 84.56C99.23 82.71 97.56 81.38 95.71 81.6C92.05 82.03 88.41 82.63 84.8 83.5C82.99 83.93 81.19 84.43 79.4 85.01C78.5 85.3 77.61 85.61 76.72 85.96C75.83 86.3 74.94 86.67 74.06 87.1C75.01 87.36 75.95 87.55 76.89 87.72C77.83 87.89 78.77 88.03 79.7 88.15C81.57 88.38 83.43 88.54 85.29 88.62C87.58 88.73 89.86 88.73 92.14 88.66C92 89.94 91.88 91.21 91.77 92.49C91.56 95.12 91.41 97.76 91.36 100.41C91.33 101.54 91.33 102.68 91.34 103.82C91.68 103.41 92.02 103 92.35 102.57C92.08 103.47 91.74 104.36 91.36 105.24Z" fill="white"/>
<path d="M49.03 111.39C49.53 111.9 50.04 112.39 50.58 112.86C51.12 113.33 51.67 113.77 52.24 114.2C54.51 115.9 57.04 117.24 59.71 118.16C62.38 119.08 65.18 119.57 67.96 119.62C70.74 119.67 73.5 119.29 76.12 118.49C78.74 117.69 81.2 116.48 83.38 114.93C84.47 114.16 85.49 113.3 86.43 112.38C87.36 111.45 88.22 110.46 88.98 109.4C89.93 108.09 90.72 106.69 91.36 105.24C91.74 104.37 92.09 103.48 92.34 102.57C92.01 103 91.68 103.41 91.33 103.82C90.08 105.3 88.74 106.64 87.29 107.81C86.36 108.55 85.41 109.23 84.41 109.82C83.42 110.43 82.39 110.95 81.35 111.4C77.17 113.21 72.67 113.79 68.4 113.18C64.14 112.59 60.17 110.81 56.96 108.15C53.75 105.49 51.31 101.95 50.01 98.03C48.7 94.12 48.48 89.79 49.44 85.7C49.92 83.65 50.69 81.66 51.72 79.79C52.76 77.92 54.07 76.17 55.61 74.6C58.69 71.48 62.73 69.12 67.3 67.98C67.87 67.84 68.45 67.7 69.04 67.6C69.33 67.54 69.63 67.5 69.93 67.45C70.2 67.42 70.51 67.42 70.81 67.41C72.01 67.39 73.22 67.44 74.42 67.55C75.63 67.66 76.83 67.85 78.01 68.13C79.19 68.42 80.36 68.8 81.46 69.35C80.47 68.61 79.35 68.03 78.19 67.55C77.03 67.07 75.83 66.7 74.61 66.4C73.39 66.1 72.15 65.89 70.89 65.73C70.57 65.69 70.27 65.66 69.92 65.63C69.6 65.59 69.28 65.55 68.96 65.52C68.32 65.46 67.67 65.42 67.02 65.41C64.41 65.38 61.76 65.78 59.21 66.61C56.66 67.44 54.21 68.7 52.01 70.33C47.59 73.57 44.14 78.31 42.44 83.7C40.72 89.09 40.71 95.03 42.47 100.47C43.34 103.19 44.64 105.77 46.3 108.09C47.12 109.27 48.03 110.37 49.03 111.39Z" fill="white"/>
<path d="M73.49 56.15C73.16 56.57 72.85 56.99 72.52 57.42C72.2 57.84 71.88 58.27 71.56 58.7C71.24 59.13 70.93 59.55 70.62 59.99C70.31 60.42 70 60.85 69.69 61.29C69.07 62.16 68.47 63.04 67.89 63.94C68.73 63.27 69.54 62.58 70.35 61.88C70.75 61.53 71.15 61.18 71.55 60.82C71.95 60.47 72.34 60.11 72.73 59.75C73.12 59.39 73.52 59.03 73.9 58.67C74.29 58.31 74.68 57.95 75.06 57.58L76.21 56.48L77 55.7C77.52 55.62 78.05 55.54 78.57 55.45C79.2 55.34 79.84 55.25 80.47 55.13L82.36 54.8C82.99 54.69 83.62 54.57 84.25 54.45C85.51 54.22 86.77 53.97 88.02 53.72C88.2 53.69 88.37 53.65 88.55 53.61L88.11 54.67C87.55 56.04 86.99 57.41 86.44 58.79C85.9 60.17 85.34 61.54 84.81 62.93L84.01 65L83.23 67.08C82.19 69.86 81.19 72.65 80.23 75.46C79.75 76.87 79.28 78.28 78.83 79.69C78.38 81.11 77.94 82.53 77.54 83.97C78.29 82.68 79.02 81.38 79.72 80.07C80.43 78.76 81.11 77.44 81.8 76.12C83.16 73.48 84.46 70.81 85.74 68.14L86.69 66.13L87.63 64.11C88.26 62.77 88.86 61.41 89.47 60.06C90.08 58.71 90.67 57.35 91.27 56L93.02 51.92V51.91C91.68 51.55 90.47 50.85 89.52 49.9C88.78 50.06 88.04 50.22 87.31 50.4C86.06 50.69 84.81 50.98 83.57 51.3C82.95 51.46 82.33 51.6 81.7 51.77L79.84 52.25C79.22 52.41 78.6 52.58 77.98 52.75C77.36 52.92 76.74 53.09 76.13 53.26L75.97 53.31C75.77 53.37 75.59 53.48 75.45 53.66L74.46 54.91L73.49 56.15Z" fill="white"/>
<path d="M94.99 48.71C97.34 48.71 99.25 46.8 99.25 44.45C99.25 42.1 97.34 40.19 94.99 40.19C92.64 40.19 90.73 42.1 90.73 44.45C90.73 46.8 92.64 48.71 94.99 48.71Z" fill="white"/>
<path d="M93.02 51.91C93.65 52.08 94.31 52.17 94.99 52.17C99.25 52.17 102.71 48.71 102.71 44.45C102.71 40.19 99.25 36.73 94.99 36.73C90.73 36.73 87.27 40.19 87.27 44.45C87.27 46.57 88.13 48.5 89.52 49.9C90.47 50.85 91.68 51.56 93.02 51.91ZM94.99 40.19C97.34 40.19 99.25 42.1 99.25 44.45C99.25 46.8 97.34 48.71 94.99 48.71C92.64 48.71 90.73 46.8 90.73 44.45C90.73 42.1 92.64 40.19 94.99 40.19Z" fill="white"/>
<path d="M68.81 153.94C66.27 152.21 61.22 150.59 53.65 149.09C49.57 148.25 46.68 147.33 44.98 146.35C42.53 144.9 41.3 142.72 41.3 139.81C41.3 133.86 45.81 130.88 54.84 130.88C59.29 130.88 62.64 131.58 64.89 132.99C67.64 134.68 69.13 137.98 69.38 142.91H72.5C72.38 132.69 66.49 127.58 54.84 127.58C43.69 127.58 38.12 131.66 38.12 139.82C38.12 144.09 40.01 147.3 43.8 149.46C45.67 150.54 49.29 151.71 54.66 152.98C59.32 154.11 62.27 154.86 63.52 155.23C65.85 156.03 67.49 156.94 68.45 157.97C69.61 159.24 70.2 161.06 70.2 163.46C70.2 166.88 68.6 169.42 65.4 171.06C62.9 172.33 59.8 172.96 56.1 172.96C45.33 172.96 39.94 168.67 39.94 160.09V158.68H36.76V160.37C36.76 166.09 38.82 170.29 42.94 172.96C46.23 175.16 50.59 176.27 56.04 176.27C60.45 176.27 64.21 175.4 67.33 173.67C71.36 171.42 73.38 168.09 73.38 163.68C73.36 159.24 71.84 156 68.81 153.94Z" fill="#3AAA35"/>
<path d="M104.37 147.26C101.67 142.81 97.53 140.58 91.95 140.58C87 140.58 83.13 142.32 80.34 145.78C77.68 149.06 76.35 153.35 76.35 158.65C76.35 163.81 77.66 168.03 80.28 171.31C83.07 174.78 86.87 176.51 91.7 176.51C97.36 176.51 101.58 174.21 104.37 169.62V175.81H107.55V140.71H104.37V147.26V147.26ZM100.91 169.06C98.6 171.83 95.51 173.21 91.64 173.21C87.73 173.21 84.69 171.8 82.53 168.99C80.49 166.36 79.47 162.92 79.47 158.65C79.47 154.43 80.49 150.96 82.53 148.24C84.78 145.33 87.81 143.88 91.64 143.88C95.76 143.88 98.94 145.24 101.19 147.96C103.31 150.59 104.37 154.15 104.37 158.65C104.37 162.83 103.22 166.3 100.91 169.06Z" fill="#3AAA35"/>
<path d="M119.28 142.2C119.28 135.5 123.5 132.14 131.95 132.14V128.9C121.38 128.9 116.1 133.33 116.1 142.19V144.44H111.61V147.82H116.1V175.81H119.28V147.82H126.21V144.44H119.28V142.2Z" fill="#3AAA35"/>
<path d="M143.87 140.58C139.09 140.58 135.25 142.24 132.36 145.57C129.47 148.9 128.02 153.26 128.02 158.65C128.02 164.14 129.29 168.43 131.83 171.52C134.53 174.85 138.44 176.51 143.56 176.51C147.1 176.51 150.13 175.71 152.67 174.12C155.58 172.34 157.64 169.24 158.85 164.84H155.61C153.7 170.42 149.72 173.21 143.69 173.21C135.74 173.21 131.56 168.76 131.15 159.85L159.66 159.78V157.32C159.66 152.21 158.23 148.14 155.35 145.12C152.48 142.09 148.65 140.58 143.87 140.58ZM131.2 156.54C131.57 152.6 132.89 149.51 135.16 147.26C137.43 145.01 140.33 143.88 143.86 143.88C147.4 143.88 150.28 145.01 152.5 147.26C154.72 149.51 155.94 152.61 156.15 156.54H131.2Z" fill="#3AAA35"/>
<path d="M104.16 82.63C102.87 85.77 102.21 89.27 102.21 93.03C102.21 96.79 102.87 100.29 104.16 103.43C105.45 106.57 107.27 109.32 109.55 111.61C111.83 113.89 114.57 115.71 117.69 117C120.81 118.29 124.25 118.95 127.91 118.95C131.57 118.95 135.01 118.29 138.13 117C141.25 115.71 143.99 113.89 146.27 111.61C148.55 109.33 150.37 106.58 151.66 103.43C152.95 100.28 153.61 96.79 153.61 93.03C153.61 89.28 152.95 85.78 151.66 82.63C150.37 79.49 148.55 76.74 146.27 74.45C143.99 72.17 141.25 70.35 138.13 69.06C135.01 67.77 131.57 67.11 127.91 67.11C124.25 67.11 120.81 67.77 117.69 69.06C114.57 70.35 111.83 72.17 109.55 74.45C107.27 76.74 105.46 79.49 104.16 82.63ZM118.67 71.72C121.41 70.47 124.52 69.83 127.91 69.83C131.31 69.83 134.42 70.47 137.15 71.72C139.88 72.97 142.23 74.69 144.14 76.82C146.04 78.94 147.51 81.44 148.52 84.24C149.52 87.02 150.02 90 150.02 93.07C150.02 96.15 149.52 99.12 148.52 101.9C147.52 104.7 146.04 107.18 144.14 109.29C142.23 111.4 139.88 113.1 137.15 114.35C134.41 115.6 131.3 116.24 127.91 116.24C124.51 116.24 121.4 115.6 118.67 114.35C115.94 113.1 113.59 111.4 111.68 109.29C109.77 107.19 108.3 104.7 107.3 101.9C106.3 99.12 105.8 96.15 105.8 93.07C105.8 89.99 106.3 87.02 107.3 84.24C108.3 81.44 109.77 78.95 111.68 76.82C113.58 74.69 115.94 72.97 118.67 71.72Z" fill="white"/>
<path d="M100.31 93.03C100.31 97.04 101.01 100.78 102.4 104.15C103.79 107.52 105.74 110.48 108.2 112.95C110.66 115.41 113.61 117.36 116.96 118.75C120.31 120.14 124 120.84 127.91 120.84C131.82 120.84 135.5 120.14 138.86 118.75C142.21 117.36 145.16 115.41 147.62 112.95C150.08 110.49 152.03 107.53 153.42 104.15C154.81 100.77 155.51 97.03 155.51 93.03C155.51 89.03 154.81 85.28 153.42 81.91C152.03 78.53 150.08 75.57 147.62 73.11C145.16 70.65 142.21 68.7 138.86 67.31C135.51 65.92 131.82 65.21 127.91 65.21C124 65.21 120.32 65.91 116.96 67.31C113.61 68.7 110.66 70.65 108.2 73.11C105.74 75.57 103.78 78.53 102.4 81.91C101.01 85.28 100.31 89.02 100.31 93.03ZM127.91 67.11C131.57 67.11 135.01 67.77 138.13 69.06C141.25 70.35 143.99 72.17 146.27 74.45C148.55 76.73 150.37 79.48 151.66 82.63C152.95 85.78 153.61 89.28 153.61 93.03C153.61 96.79 152.95 100.28 151.66 103.43C150.37 106.57 148.55 109.32 146.27 111.61C143.99 113.89 141.25 115.71 138.13 117C135.01 118.29 131.57 118.95 127.91 118.95C124.25 118.95 120.81 118.29 117.69 117C114.57 115.71 111.83 113.89 109.55 111.61C107.27 109.33 105.45 106.57 104.16 103.43C102.87 100.29 102.21 96.79 102.21 93.03C102.21 89.27 102.87 85.77 104.16 82.63C105.45 79.49 107.27 76.74 109.55 74.45C111.83 72.17 114.57 70.35 117.69 69.06C120.82 67.77 124.25 67.11 127.91 67.11Z" fill="white"/>
<path d="M105.8 93.07C105.8 96.15 106.3 99.12 107.3 101.9C108.3 104.7 109.77 107.18 111.68 109.29C113.59 111.4 115.94 113.1 118.67 114.35C121.41 115.6 124.52 116.24 127.91 116.24C131.31 116.24 134.42 115.6 137.15 114.35C139.88 113.1 142.23 111.4 144.14 109.29C146.04 107.19 147.52 104.7 148.52 101.9C149.52 99.12 150.02 96.15 150.02 93.07C150.02 90 149.52 87.02 148.52 84.24C147.52 81.44 146.05 78.95 144.14 76.82C142.23 74.69 139.88 72.97 137.15 71.72C134.41 70.47 131.3 69.83 127.91 69.83C124.51 69.83 121.4 70.47 118.67 71.72C115.94 72.97 113.59 74.69 111.68 76.82C109.78 78.94 108.3 81.44 107.3 84.24C106.3 87.02 105.8 89.99 105.8 93.07ZM127.91 71.74C131.03 71.74 133.87 72.32 136.36 73.46C138.85 74.6 140.99 76.16 142.73 78.1C144.47 80.04 145.81 82.32 146.73 84.89C147.65 87.47 148.12 90.22 148.12 93.08C148.12 95.94 147.65 98.69 146.73 101.27C145.81 103.83 144.47 106.1 142.73 108.02C140.99 109.93 138.85 111.48 136.36 112.62C133.87 113.76 131.03 114.34 127.91 114.34C124.79 114.34 121.94 113.76 119.46 112.62C116.97 111.48 114.82 109.93 113.09 108.02C111.35 106.1 110.01 103.83 109.09 101.27C108.17 98.7 107.7 95.94 107.7 93.08C107.7 90.22 108.17 87.47 109.09 84.89C110.01 82.33 111.35 80.04 113.09 78.1C114.82 76.16 116.97 74.6 119.46 73.46C121.95 72.31 124.79 71.74 127.91 71.74Z" fill="white"/>
<path d="M64.35 57.48C65.25 57.48 66.15 57.44 67.06 57.35C67.96 57.26 68.86 57.13 69.77 56.88C68.87 56.63 67.97 56.5 67.06 56.41C66.16 56.32 65.26 56.28 64.35 56.28C63.45 56.28 62.55 56.32 61.64 56.41C60.74 56.5 59.84 56.63 58.93 56.89C59.83 57.14 60.73 57.27 61.64 57.37C62.54 57.44 63.45 57.48 64.35 57.48Z" fill="white"/>
<path d="M69.76 51.42C70.66 51.42 71.56 51.38 72.47 51.29C73.37 51.2 74.27 51.07 75.18 50.82C74.28 50.57 73.38 50.44 72.47 50.35C71.57 50.26 70.67 50.22 69.76 50.22C68.86 50.22 67.96 50.26 67.05 50.35C66.15 50.44 65.25 50.57 64.34 50.83C65.24 51.08 66.14 51.21 67.05 51.31C67.96 51.38 68.86 51.43 69.76 51.42Z" fill="white"/>
</g>
<defs>
<clipPath id="clip0">
<rect width="196.2" height="337.19" fill="white"/>
</clipPath>
</defs>
</svg>
