<svg id="Capa_1" enable-background="new 0 0 512 512" height="512" viewBox="0 0 512 512" width="512" xmlns="http://www.w3.org/2000/svg"><g><path d="m219.653 512c-98.663 0-178.932-80.268-178.932-178.932 0-34.164 9.668-67.387 27.96-96.077 17.788-27.901 42.88-50.308 72.563-64.799 11.927-5.823 26.316-.874 32.138 11.053 5.823 11.927.874 26.316-11.053 32.138-21.725 10.606-40.093 27.012-53.12 47.445-13.361 20.957-20.424 45.246-20.424 70.24 0 72.161 58.707 130.868 130.868 130.868 41.596 0 81.113-20.076 105.71-53.702 7.836-10.713 22.872-13.045 33.584-5.208 10.713 7.836 13.045 22.872 5.209 33.585-16.27 22.242-37.77 40.694-62.177 53.361-25.245 13.102-53.713 20.028-82.326 20.028z" fill="#80b4fb"/><g><path d="m364.156 420.03c-16.27 22.242-37.77 40.694-62.177 53.361-25.245 13.102-53.713 20.028-82.326 20.028-95.468 0-173.709-75.154-178.677-169.406-.151 3.01-.254 6.027-.254 9.055-.001 98.664 80.267 178.932 178.931 178.932 28.613 0 57.081-6.926 82.326-20.028 24.408-12.667 45.908-31.119 62.177-53.361 5.157-7.05 5.909-15.972 2.767-23.483-.714 1.701-1.63 3.348-2.767 4.902z" fill="#61a2f9"/></g><ellipse cx="252.827" cy="41.723" fill="#80b4fb" rx="41.723" ry="41.723" transform="matrix(.973 -.23 .23 .973 -2.823 59.204)"/><path d="m252.827 64.865c-19.848 0-36.447-13.864-40.672-32.433-.68 2.989-1.051 6.095-1.051 9.29 0 23.043 18.68 41.723 41.723 41.723s41.723-18.68 41.723-41.723c0-3.195-.371-6.301-1.051-9.29-4.224 18.57-20.823 32.433-40.672 32.433z" fill="#61a2f9"/><path d="m469.801 427.927-40.274-107.98c-5.681-15.495-20.43-25.797-36.934-25.797h-100.424v-73.295h93.826c13.298 0 24.078-10.78 24.078-24.078 0-13.298-10.78-24.077-24.078-24.077h-93.826v-15.866c0-21.727-17.614-39.341-39.341-39.341-21.728 0-39.341 17.614-39.341 39.341v146.128c0 21.728 17.614 39.343 39.343 39.343h106.13c16.504 0 31.253 10.302 36.934 25.797l28.695 76.401c4.577 12.485 18.409 18.895 30.894 14.318 12.485-4.577 18.895-18.409 14.318-30.894z" fill="#80b4fb"/><g fill="#61a2f9"><path d="m385.994 202.275h-88.664c-2.85 0-5.161 2.311-5.161 5.161v13.419h93.826c13.298 0 24.078-10.78 24.078-24.078 0-3.293-.663-6.431-1.86-9.29-3.637 8.685-12.214 14.788-22.219 14.788z"/><path d="m464.773 440.241c-12.485 4.577-26.317-1.833-30.894-14.318l-28.695-76.401c-5.681-15.495-20.43-25.797-36.934-25.797h-115.421c-21.729 0-39.343-17.614-39.343-39.343v18.581c0 21.728 17.614 39.343 39.343 39.343h106.13c16.504 0 31.253 10.302 36.934 25.797l28.695 76.401c4.578 12.485 18.409 18.895 30.894 14.318 9.608-3.523 15.612-12.526 15.786-22.179-1.917 1.491-4.092 2.717-6.495 3.598z"/></g></g></svg>