<svg width="53" height="63" viewBox="0 0 53 63" fill="none" xmlns="http://www.w3.org/2000/svg">
<g clip-path="url(#clip0)">
<path d="M47.5001 40.6575H5.39974C2.41769 40.6575 0 38.2249 0 35.2245V5.43302C0 2.4326 2.41769 0 5.39974 0H47.5001C50.4821 0 52.8998 2.4326 52.8998 5.43302V35.2251C52.8998 38.2249 50.4821 40.6575 47.5001 40.6575Z" fill="#3AAA35"/>
<path d="M16.1458 24.2711C16.5259 24.0824 16.9093 23.9256 17.2928 23.7766C17.6768 23.6271 18.062 23.4927 18.4482 23.3661C19.2207 23.1158 19.996 22.8991 20.7741 22.7126C22.3302 22.3369 23.8975 22.0737 25.4715 21.8889C26.2684 21.7954 26.9903 22.3699 27.0832 23.1718C27.0955 23.276 27.096 23.379 27.0866 23.4793L27.0799 23.5442C26.9664 24.681 26.8267 25.8144 26.6541 26.9445C26.4799 28.074 26.2796 29.2007 26.0375 30.3223C25.7982 31.444 25.5193 32.5612 25.1943 33.6733C25.0307 34.2288 24.8576 34.7838 24.6639 35.3359L24.517 35.7498L24.3617 36.1625C24.2537 36.4374 24.1463 36.7118 24.0205 36.9845C23.961 36.69 23.9192 36.3977 23.878 36.1048L23.8224 35.6669L23.7751 35.2301C23.7138 34.6477 23.6732 34.0681 23.642 33.4891C23.5825 32.3316 23.5686 31.1802 23.5942 30.0328C23.617 28.8854 23.6816 27.743 23.7723 26.6034C23.8647 25.4644 23.9899 24.3288 24.1418 23.1965L25.7503 24.8523C24.1697 24.9677 22.5812 25.0041 20.9828 24.9285C20.1836 24.8921 19.3816 24.8255 18.5762 24.7247C18.1733 24.6737 17.7698 24.6138 17.3652 24.5393C16.9594 24.4665 16.5543 24.3848 16.1458 24.2711Z" fill="white"/>
<path d="M24.0205 30.9675C23.7294 32.0124 23.2308 33.0176 22.574 33.9264C22.2479 34.3834 21.8755 34.8107 21.4748 35.2155C21.0685 35.6137 20.6305 35.9861 20.1608 36.3215C19.2219 36.9907 18.1616 37.5165 17.034 37.8615C15.9059 38.207 14.7154 38.3722 13.5199 38.3515C12.3233 38.3296 11.1184 38.118 9.97018 37.7204C8.82256 37.3222 7.7317 36.7421 6.75383 36.004C6.51006 35.8192 6.27185 35.6255 6.04088 35.4239C5.81213 35.22 5.59006 35.0078 5.37523 34.7877C4.94613 34.3476 4.55264 33.8727 4.19588 33.3704C3.48237 32.3663 2.92415 31.2474 2.54736 30.0698C1.79266 27.71 1.79489 25.138 2.53622 22.8045C3.27088 20.4688 4.75244 18.4136 6.65699 17.0114C7.60759 16.3075 8.66004 15.7615 9.75869 15.4014C10.8573 15.0408 12.0011 14.8672 13.1225 14.8795C13.403 14.8829 13.6824 14.8991 13.959 14.926C14.0976 14.9377 14.2351 14.9551 14.3726 14.973C14.5195 14.9848 14.6514 14.9977 14.7889 15.0145C15.331 15.0805 15.8647 15.1741 16.3912 15.3034C16.9166 15.4339 17.4353 15.5918 17.9334 15.8007C18.431 16.0079 18.9119 16.2604 19.3393 16.5796C18.8623 16.3422 18.3603 16.1759 17.8522 16.0527C17.3429 15.9306 16.8264 15.8494 16.3072 15.8007C15.789 15.752 15.2675 15.729 14.7516 15.7385C14.6241 15.7419 14.4911 15.7441 14.3737 15.7548C14.2462 15.7766 14.1188 15.7934 13.9924 15.8186C13.7398 15.8634 13.4904 15.9211 13.2444 15.9838C11.2748 16.4783 9.53941 17.5008 8.21146 18.8532C7.54748 19.5302 6.98369 20.2884 6.53566 21.0993C6.08874 21.9113 5.75759 22.7748 5.55277 23.6613C5.13925 25.432 5.2322 27.3079 5.79655 29.0013C6.35923 30.6992 7.40612 32.2325 8.78972 33.3849C10.1717 34.5391 11.8809 35.3102 13.7153 35.5639C15.5525 35.8259 17.4904 35.5767 19.2892 34.7927C19.7389 34.5979 20.1819 34.3733 20.6066 34.1101C21.0368 33.8531 21.447 33.5574 21.8466 33.2382C22.643 32.5942 23.3693 31.8321 24.0205 30.9675Z" fill="white"/>
<path d="M17.6474 22.9097C17.8221 22.287 18.0075 21.6694 18.2028 21.0562C18.3965 20.4419 18.5991 19.8315 18.8039 19.2222C19.2163 18.0042 19.6499 16.7958 20.0962 15.5924L20.4335 14.6908L20.778 13.7925C21.0056 13.1928 21.2455 12.5981 21.4798 12.0011C21.7169 11.4053 21.9607 10.8123 22.2006 10.2181L22.9402 8.44297L23.784 9.46831C23.2441 9.58142 22.7054 9.7007 22.1644 9.80822C21.6234 9.9163 21.083 10.0266 20.5398 10.1263C20.2682 10.1767 19.9977 10.2299 19.7261 10.2775L18.9108 10.4208C18.6391 10.4701 18.3659 10.5116 18.0937 10.5575C17.8216 10.6028 17.5489 10.6476 17.2756 10.688L17.5672 10.5177L17.0769 10.9993L16.581 11.4759C16.4168 11.6355 16.2476 11.7911 16.0812 11.9485C15.9148 12.1064 15.7462 12.2621 15.577 12.4172C15.4083 12.5735 15.2386 12.728 15.0672 12.8809C14.8968 13.0354 14.7243 13.1878 14.5518 13.3395C14.2056 13.643 13.8544 13.9421 13.4949 14.2333C13.7459 13.8435 14.0052 13.461 14.2702 13.0836C14.4026 12.8949 14.5356 12.7067 14.6709 12.5208C14.805 12.3338 14.9403 12.1479 15.0772 11.9631C15.213 11.7777 15.3499 11.5929 15.489 11.4104C15.6276 11.2272 15.764 11.0424 15.9053 10.8616L16.3255 10.3167L16.7513 9.7763C16.8103 9.70126 16.8888 9.65086 16.9739 9.62622L17.0435 9.60606C17.309 9.52879 17.5756 9.45599 17.8422 9.38375C18.1087 9.31207 18.3748 9.23591 18.6419 9.16759L19.4434 8.95816C19.7105 8.88816 19.9788 8.82376 20.2465 8.75656C20.7813 8.62048 21.319 8.49616 21.8561 8.36849C22.3931 8.24137 22.9324 8.12489 23.4701 8.00281C23.8697 7.91209 24.2665 8.16409 24.3567 8.56616C24.3923 8.72576 24.3745 8.88536 24.3149 9.02479L24.3138 9.02759L23.5591 10.796C23.3009 11.3829 23.0465 11.9709 22.785 12.5567C22.5212 13.1407 22.2624 13.7276 21.9919 14.3089L21.5895 15.1824L21.1793 16.0527C20.6288 17.2118 20.0662 18.3654 19.4823 19.5095C19.189 20.0812 18.8935 20.6519 18.5885 21.2186C18.2835 21.7875 17.9707 22.3509 17.6474 22.9097Z" fill="white"/>
<path d="M25.1621 8.38976C26.5868 8.38976 27.7417 7.22769 27.7417 5.79421C27.7417 4.36072 26.5868 3.19865 25.1621 3.19865C23.7373 3.19865 22.5824 4.36072 22.5824 5.79421C22.5824 7.22769 23.7373 8.38976 25.1621 8.38976Z" fill="white"/>
<path d="M25.162 9.13959C23.3287 9.13959 21.8365 7.63882 21.8365 5.79365C21.8365 3.94848 23.3281 2.44771 25.162 2.44771C26.9958 2.44771 28.4874 3.94848 28.4874 5.79365C28.4874 7.63882 26.9953 9.13959 25.162 9.13959ZM25.162 3.94848C24.1502 3.94848 23.3276 4.77671 23.3276 5.79421C23.3276 6.81171 24.1507 7.63994 25.162 7.63994C26.1733 7.63994 26.9964 6.81171 26.9964 5.79421C26.9964 4.77671 26.1733 3.94848 25.162 3.94848Z" fill="white"/>
<path d="M8.3834 62.8779C6.0375 62.8779 4.15689 62.4008 2.74267 61.446C0.969477 60.2885 0.0834351 58.4708 0.0834351 55.9928V55.2615H1.45313V55.8708C1.45313 59.5874 3.77175 61.446 8.41011 61.446C10.0035 61.446 11.3382 61.1716 12.4123 60.6234C13.7909 59.9128 14.4805 58.8158 14.4805 57.3329C14.4805 56.2969 14.2295 55.5051 13.7286 54.9569C13.3162 54.5105 12.6093 54.1141 11.6064 53.7686C11.0694 53.6062 9.79761 53.2814 7.79233 52.7936C5.48206 52.2454 3.92425 51.738 3.11835 51.2704C1.48875 50.3364 0.673944 48.9448 0.673944 47.0968C0.673944 43.5627 3.07327 41.796 7.87303 41.796C12.8871 41.796 15.4211 44.0102 15.4745 48.4375H14.1315C14.0241 46.305 13.3796 44.8731 12.1975 44.1418C11.2308 43.5325 9.78871 43.2279 7.87303 43.2279C3.98714 43.2279 2.04419 44.5181 2.04419 47.0968C2.04419 48.3563 2.57237 49.301 3.62927 49.9304C4.36337 50.3571 5.60784 50.753 7.36323 51.1187C10.6224 51.7688 12.798 52.4694 13.8905 53.2209C15.1973 54.1146 15.8513 55.5163 15.8513 57.4253C15.8513 59.3349 14.9825 60.7763 13.2455 61.7512C11.9025 62.5022 10.2813 62.8779 8.3834 62.8779Z" fill="#3AAA35"/>
<path d="M29.2009 62.6954V60.0147C28.001 62.0054 26.1832 63.0005 23.7483 63.0005C21.6707 63.0005 20.0321 62.2496 18.8328 60.746C17.7046 59.3248 17.1403 57.497 17.1403 55.262C17.1403 52.9672 17.713 51.1086 18.8595 49.6868C20.0589 48.1838 21.7246 47.4323 23.8557 47.4323C26.255 47.4323 28.0366 48.3971 29.2009 50.3263V47.4927H30.5706V62.6948H29.2009V62.6954ZM27.8312 50.6309C26.8645 49.4533 25.4942 48.8642 23.7216 48.8642C22.0736 48.8642 20.7668 49.4941 19.8001 50.753C18.9224 51.9312 18.4838 53.4337 18.4838 55.262C18.4838 57.1106 18.9224 58.6035 19.8001 59.7403C20.7312 60.9588 22.0385 61.5681 23.7216 61.5681C25.3868 61.5681 26.7164 60.9695 27.7104 59.7705C28.7044 58.5721 29.2015 57.0697 29.2015 55.2615C29.2009 53.3116 28.7445 51.7688 27.8312 50.6309Z" fill="#3AAA35"/>
<path d="M35.6209 48.1328V49.1078H38.6024V50.5699H35.6209V62.6954H34.2507V50.5699H32.3167V49.1078H34.2507V48.1328C34.2507 44.2941 36.5248 42.375 41.0735 42.375V43.7761C37.4381 43.7761 35.6209 45.2287 35.6209 48.1328Z" fill="#3AAA35"/>
<path d="M40.7244 55.7795C40.903 59.6384 42.703 61.5681 46.1236 61.5681C48.7199 61.5681 50.4302 60.3602 51.2539 57.9427H52.6503C52.1305 59.8523 51.2445 61.1924 49.9911 61.964C48.8986 62.6545 47.5912 63 46.0696 63C43.8667 63 42.1837 62.2793 41.0194 60.8368C39.9268 59.4962 39.3809 57.6381 39.3809 55.2615C39.3809 52.9264 40.0031 51.0375 41.2476 49.595C42.492 48.153 44.1439 47.4317 46.2037 47.4317C48.263 47.4317 49.9104 48.0869 51.146 49.3967C52.3815 50.7066 52.9993 52.4688 52.9993 54.6825V55.7487L40.7244 55.7795ZM46.2037 48.8636C44.6815 48.8636 43.4326 49.3514 42.4564 50.3258C41.4802 51.3007 40.912 52.6413 40.7506 54.3471H51.4949C51.4053 52.6408 50.8816 51.3007 49.9238 50.3258C48.9659 49.3514 47.7259 48.8636 46.2037 48.8636Z" fill="#3AAA35"/>
<path d="M50.8083 26.8364C50.8083 28.5259 50.5178 30.0799 49.9379 31.4978C49.3574 32.9162 48.5542 34.1415 47.528 35.1735C46.5017 36.2056 45.2895 37.0142 43.8903 37.5983C42.4911 38.1818 40.9722 38.4741 39.3348 38.4741C37.6969 38.4741 36.1792 38.1818 34.78 37.5983C33.3808 37.0148 32.168 36.2062 31.1423 35.1735C30.116 34.1409 29.3129 32.9162 28.7324 31.4978C28.1519 30.0799 27.8619 28.5259 27.8619 26.8364C27.8619 25.1469 28.1519 23.5935 28.7324 22.175C29.3123 20.7571 30.116 19.5313 31.1423 18.4993C32.1686 17.4666 33.3808 16.6586 34.78 16.0745C36.1792 15.491 37.6974 15.1987 39.3348 15.1987C40.9722 15.1987 42.4911 15.491 43.8903 16.0745C45.2895 16.6586 46.5022 17.4666 47.528 18.4993C48.5542 19.5319 49.3574 20.7571 49.9379 22.175C50.5178 23.5935 50.8083 25.1469 50.8083 26.8364ZM48.4452 26.8521C48.4452 25.5613 48.2376 24.3327 47.8235 23.1662C47.4083 22.0003 46.8078 20.975 46.0202 20.0902C45.2321 19.2054 44.2738 18.5026 43.1439 17.9818C42.0141 17.461 40.7446 17.2006 39.3348 17.2006C37.9251 17.2006 36.6556 17.461 35.5258 17.9818C34.3959 18.5026 33.437 19.2054 32.6495 20.0902C31.8614 20.975 31.2603 22.0003 30.8462 23.1662C30.4316 24.3327 30.2245 25.5613 30.2245 26.8521C30.2245 28.1434 30.4316 29.372 30.8462 30.5379C31.2608 31.7044 31.8614 32.7247 32.6495 33.5988C33.437 34.4735 34.3954 35.1707 35.5258 35.6915C36.6556 36.2123 37.9251 36.4722 39.3348 36.4722C40.7441 36.4722 42.0136 36.2123 43.1439 35.6915C44.2738 35.1707 45.2321 34.4735 46.0202 33.5988C46.8078 32.7241 47.4088 31.7038 47.8235 30.5379C48.2376 29.3715 48.4452 28.1434 48.4452 26.8521Z" fill="white"/>
<path d="M39.3348 38.8868C37.6518 38.8868 36.0661 38.5816 34.6224 37.9796C33.1804 37.3782 31.9114 36.5321 30.8517 35.4659C29.7909 34.3985 28.9505 33.1167 28.3528 31.6551C27.7545 30.1941 27.4512 28.5729 27.4512 26.8364C27.4512 25.101 27.7545 23.4793 28.3528 22.0177C28.9505 20.5561 29.7915 19.2737 30.8517 18.207C31.9109 17.1413 33.1798 16.2951 34.6224 15.6932C36.0661 15.0912 37.6518 14.7854 39.3348 14.7854C41.0178 14.7854 42.6035 15.0906 44.0472 15.6932C45.4904 16.2957 46.7588 17.1413 47.8179 18.207C48.8776 19.2732 49.718 20.555 50.3168 22.0177C50.9151 23.4809 51.2185 25.1021 51.2185 26.8364C51.2185 28.5713 50.9151 30.1924 50.3168 31.6551C49.7185 33.1173 48.8776 34.3996 47.8179 35.4659C46.7576 36.5326 45.4892 37.3782 44.0472 37.9796C42.6035 38.5811 41.0178 38.8868 39.3348 38.8868ZM39.3348 15.6103C37.7598 15.6103 36.2804 15.8942 34.9369 16.4547C33.5939 17.0153 32.4146 17.801 31.4317 18.7899C30.4482 19.7794 29.6679 20.9705 29.1114 22.3313C28.5543 23.6926 28.2715 25.2085 28.2715 26.8358C28.2715 28.4637 28.5543 29.9791 29.1114 31.3404C29.6679 32.7006 30.4482 33.8923 31.4322 34.8818C32.4157 35.8713 33.595 36.6569 34.9374 37.2169C36.281 37.7775 37.7609 38.0614 39.3354 38.0614C40.9104 38.0614 42.3903 37.7775 43.7339 37.2169C45.0763 36.6569 46.2556 35.8713 47.2391 34.8818C48.2219 33.8928 49.0028 32.7012 49.5594 31.3404C50.1165 29.9779 50.3992 28.4626 50.3992 26.8358C50.3992 25.2096 50.1165 23.6943 49.5594 22.3313C49.0022 20.9699 48.2214 19.7788 47.2391 18.7899C46.2562 17.801 45.0768 17.0153 43.7339 16.4547C42.3892 15.8948 40.9093 15.6103 39.3348 15.6103ZM39.3348 36.8843C37.8722 36.8843 36.5331 36.6088 35.3554 36.0662C34.18 35.5246 33.1676 34.7877 32.3461 33.8755C31.5257 32.9649 30.8913 31.8886 30.4605 30.6763C30.0319 29.4723 29.8149 28.1854 29.8149 26.8515C29.8149 25.5182 30.0319 24.2313 30.4605 23.0268C30.8913 21.8155 31.5252 20.7342 32.3444 19.8141C33.1665 18.8907 34.1794 18.1476 35.3554 17.6061C36.5342 17.0629 37.8727 16.7874 39.3348 16.7874C40.7963 16.7874 42.1354 17.0629 43.3142 17.6061C44.4891 18.1476 45.502 18.8907 46.3252 19.8141C47.1444 20.7342 47.7778 21.815 48.2091 23.0268C48.6377 24.233 48.8548 25.5199 48.8548 26.8515C48.8548 28.1837 48.6377 29.4706 48.2091 30.6763C47.7778 31.8886 47.1433 32.9649 46.3235 33.8755C45.5015 34.7877 44.4891 35.5246 43.3142 36.0662C42.136 36.6093 40.7969 36.8843 39.3348 36.8843ZM39.3348 17.6128C37.9913 17.6128 36.7674 17.8631 35.6966 18.3565C34.6241 18.8504 33.7013 19.5263 32.955 20.3652C32.2064 21.2057 31.627 22.1946 31.2324 23.3051C30.8356 24.4206 30.6347 25.6139 30.6347 26.8521C30.6347 28.0908 30.8356 29.2841 31.2324 30.3985C31.6265 31.5084 32.2059 32.4917 32.9533 33.3216C33.6997 34.1504 34.6224 34.8219 35.6966 35.3163C36.7669 35.8097 37.9907 36.0594 39.3348 36.0594C40.6783 36.0594 41.9028 35.8091 42.973 35.3163C44.0461 34.8219 44.9694 34.1504 45.7163 33.3216C46.4638 32.4917 47.0426 31.5084 47.4372 30.3985C47.834 29.2824 48.0349 28.0891 48.0349 26.8515C48.0349 25.6145 47.834 24.4212 47.4372 23.3045C47.042 22.1941 46.4621 21.2051 45.7147 20.3646C44.9677 19.5257 44.045 18.8504 42.973 18.3559C41.9017 17.8631 40.6778 17.6128 39.3348 17.6128Z" fill="white"/>
<path d="M14.3019 11.1735C13.9134 11.2821 13.5249 11.3387 13.1364 11.379C12.748 11.4176 12.3595 11.4355 11.971 11.4355C11.5825 11.4361 11.1941 11.4182 10.8056 11.3795C10.4171 11.3392 10.0286 11.2827 9.64014 11.1729C10.0286 11.0637 10.4171 11.0072 10.8056 10.9663C11.1941 10.9276 11.5825 10.9097 11.971 10.9103C12.3595 10.9108 12.748 10.9288 13.1364 10.9668C13.5249 11.0083 13.9134 11.0648 14.3019 11.1735Z" fill="white"/>
<path d="M16.6327 8.55216C16.2442 8.6608 15.8557 8.71736 15.4673 8.75768C15.0788 8.79632 14.6903 8.81424 14.3018 8.81424C13.9133 8.8148 13.5249 8.79688 13.1364 8.75824C12.7479 8.71792 12.3594 8.66136 11.9709 8.5516C12.3594 8.44241 12.7479 8.38585 13.1364 8.34497C13.5249 8.30633 13.9133 8.28841 14.3018 8.28897C14.6903 8.28953 15.0788 8.30745 15.4673 8.34553C15.8557 8.38697 16.2442 8.44353 16.6327 8.55216Z" fill="white"/>
</g>
<defs>
<clipPath id="clip0">
<rect width="53" height="63" fill="white"/>
</clipPath>
</defs>
</svg>
