<svg width="98" height="94" viewBox="0 0 98 94" fill="none" xmlns="http://www.w3.org/2000/svg">
<path d="M39.45 90.4821V62.9221C39.45 61.1221 40.9099 59.6621 42.7099 59.6621H62.92C64.72 59.6621 66.1799 61.1221 66.1799 62.9221V90.4821C66.1799 92.2821 64.72 93.7421 62.92 93.7421H42.7099C40.9099 93.7421 39.45 92.2821 39.45 90.4821Z" fill="#666661"/>
<path d="M63.63 4.38207C57.75 -1.29793 48.4 -1.21794 42.62 4.56206L0 47.1921V87.8421C0 91.1021 2.63999 93.7421 5.89999 93.7421H12.94C16.2 93.7421 18.84 91.1021 18.84 87.8421V57.5921L67.92 8.51207L63.63 4.38207Z" fill="#39A935"/>
<path d="M30.76 16.4221C40.66 10.8921 54.9 20.6621 54.9 20.6621L72.49 36.0921C79.61 42.3321 90.34 41.9821 97.04 35.2921L63.63 4.04208C57.73 -1.47792 48.51 -1.32791 42.8 4.39209L30.76 16.4221Z" fill="#319B29"/>
</svg>
