<svg width="123" height="107" viewBox="0 0 123 107" fill="none" xmlns="http://www.w3.org/2000/svg">
<path d="M3.18194 66.18C3.71194 66.38 4.29194 66.5 4.93194 66.5H10.0419C10.9119 66.5 11.6919 66.85 12.2619 67.42C12.8319 67.99 13.1819 68.77 13.1819 69.64V103.88C13.2119 103.89 13.2419 103.89 13.2719 103.9C13.5019 103.94 13.7319 103.98 13.9619 104.03C20.4919 80.81 61.3419 59.2 70.5319 37.16C80.2419 13.82 57.0919 2.48999 57.0919 2.48999L35.0519 24.52L1.45194 58.11C0.481942 59.07 0.0319419 60.26 0.00194191 61.42C-0.0380581 62.82 0.541942 64.2 1.55194 65.17C1.79194 65.4 2.06194 65.59 2.34194 65.76C2.61194 65.93 2.88194 66.07 3.18194 66.18Z" fill="#39A935"/>
<path d="M70.522 37.14C61.342 59.18 20.492 80.79 13.952 104.01C21.182 105.38 29.362 106.26 38.222 106.08C43.372 105.97 48.412 105.43 53.332 104.61V86.76C53.332 84.44 55.212 82.56 57.532 82.56H65.212C67.532 82.56 69.412 84.44 69.412 86.76V101.06C83.862 97.23 97.292 92.45 109.812 91.32L109.612 69.66C109.592 67.92 111.002 66.49 112.752 66.49H117.832C122.212 66.49 124.402 61.19 121.302 58.1L64.852 1.67999C62.932 -0.24001 59.822 -0.24001 57.902 1.67999L57.092 2.48999C57.092 2.48999 80.242 13.82 70.522 37.14Z" fill="#319B29"/>
</svg>
