<svg width="66" height="40" viewBox="0 0 66 40" fill="none" xmlns="http://www.w3.org/2000/svg">
<path fill-rule="evenodd" clip-rule="evenodd" d="M33.0278 0.394999C33.0278 0.156354 33.1773 0 33.3662 0C33.5157 0 33.7046 0.156354 33.7046 0.394999V2.36177H37.8051C37.9193 2.36177 38.0334 2.43994 38.1081 2.48109L39.9144 4.44786C40.0285 4.56718 40.0285 4.83874 39.9144 4.95806L38.1081 6.96598C37.994 7.04415 37.9193 7.04415 37.8051 7.04415H33.7046V7.94936H37.9153C38.1042 7.94936 38.2537 8.06868 38.2537 8.26618C38.2537 8.42253 38.2144 8.46368 38.1396 8.50071L36.5616 10.27L38.1396 11.9199C38.3285 12.1174 38.3285 12.352 38.1396 12.4713C38.1042 12.5124 38.0294 12.5906 37.9153 12.5906H33.7046V20.6922C35.1725 20.7333 36.5262 20.9679 37.5021 21.3588C38.6669 21.8319 39.3832 22.5396 39.3832 23.3255C39.3832 24.1526 38.6669 24.8191 37.5021 25.2923C36.4475 25.7655 34.9442 26 33.3662 26C31.7488 26 30.281 25.7655 29.1909 25.2923C27.9868 24.8191 27.3099 24.1526 27.3099 23.3255C27.3099 22.5396 27.9868 21.8319 29.1909 21.3588C30.2062 20.9638 31.5599 20.7292 33.0278 20.6922V12.5865H29.1909C29.0768 12.5865 28.9666 12.5083 28.9273 12.4672L27.0856 10.4592C26.9715 10.3399 26.9715 10.1465 27.0856 10.0272L28.9666 8.06045C29.0414 7.94113 29.0807 7.94113 29.1909 7.94113H33.0278V7.03592H29.0768C28.9273 7.03592 28.7384 6.9166 28.7384 6.68207C28.7384 6.52572 28.8132 6.48457 28.8525 6.40639L30.4305 4.7153L28.8525 3.02833C28.6636 2.87197 28.6636 2.5963 28.8525 2.47697C28.9273 2.43583 28.9666 2.35765 29.0768 2.35765H33.0278V0.394999ZM33.7046 21.3958V23.2432C33.7046 23.4407 33.5157 23.5971 33.3662 23.5971C33.1773 23.5971 33.0278 23.4407 33.0278 23.2432V21.3958C31.5993 21.4369 30.3558 21.6715 29.4152 22.0665C28.5495 22.4203 27.9868 22.8153 27.9868 23.3255C27.9868 23.7987 28.5495 24.2678 29.4152 24.6216C30.4305 25.0536 31.8236 25.2882 33.3662 25.2882C34.9088 25.2882 36.2625 25.0536 37.2424 24.6216C38.1436 24.2678 38.7102 23.7946 38.7102 23.3255C38.7102 22.8153 38.1436 22.4203 37.2424 22.0665C36.3373 21.6715 35.0977 21.4328 33.7046 21.3958Z" fill="#696969"/>
<path d="M18.873 38V32.18L15.923 38H15.513L12.553 32.18V38H12.043V31.22H12.623L15.713 37.31L18.813 31.22H19.383V38H18.873ZM20.4864 32.23C20.3797 32.23 20.2997 32.1633 20.2464 32.03V31.33C20.3064 31.1967 20.3864 31.13 20.4864 31.13C20.5664 31.13 20.6564 31.19 20.7564 31.31V32.05C20.6631 32.17 20.5731 32.23 20.4864 32.23ZM20.2464 38V33.04H20.7564V38H20.2464ZM23.6638 38.13C22.1772 38.13 21.4338 37.4633 21.4338 36.13H21.9638C21.9638 36.6567 22.1005 37.04 22.3738 37.28C22.6472 37.52 23.0805 37.64 23.6738 37.64C24.0738 37.64 24.4038 37.5767 24.6638 37.45C24.9838 37.2833 25.1438 37.0367 25.1438 36.71C25.1438 36.31 24.8105 36.0333 24.1438 35.88C24.0972 35.8667 23.7638 35.8133 23.1438 35.72C22.1438 35.5667 21.6438 35.1333 21.6438 34.42C21.6438 33.9533 21.8438 33.59 22.2438 33.33C22.5838 33.1033 23.0005 32.99 23.4938 32.99C24.9272 32.99 25.6438 33.5833 25.6438 34.77H25.1038C25.1038 34.3167 24.9805 33.99 24.7338 33.79C24.4872 33.5833 24.0905 33.48 23.5438 33.48C23.1772 33.48 22.8672 33.5533 22.6138 33.7C22.3205 33.8733 22.1738 34.1133 22.1738 34.42C22.1738 34.82 22.5005 35.0767 23.1538 35.19C23.3272 35.2233 23.6805 35.2867 24.2138 35.38C25.1872 35.5467 25.6738 35.99 25.6738 36.71C25.6738 37.2167 25.4538 37.5933 25.0138 37.84C24.6605 38.0333 24.2105 38.13 23.6638 38.13ZM34.4923 34.69C35.1923 34.9633 35.5423 35.4933 35.5423 36.28V38H35.0323V36.3C35.0323 35.4133 34.4123 34.97 33.1723 34.97H30.5023V38H29.9923V31.22H33.2623C34.8489 31.22 35.6423 31.8133 35.6423 33C35.6423 33.8267 35.2589 34.39 34.4923 34.69ZM33.2823 31.69H30.5023V34.48H33.1223C33.6956 34.48 34.1556 34.3733 34.5023 34.16C34.9223 33.9067 35.1323 33.53 35.1323 33.03C35.1323 32.1367 34.5156 31.69 33.2823 31.69ZM40.2783 38.01V37.33C39.8849 37.85 39.2883 38.11 38.4883 38.11C37.8616 38.11 37.3649 37.96 36.9983 37.66C36.6116 37.3333 36.4183 36.8767 36.4183 36.29V33.12H36.9283V36.28C36.9283 37.1867 37.4483 37.64 38.4883 37.64C39.0883 37.64 39.5416 37.4667 39.8483 37.12C40.1349 36.7933 40.2783 36.34 40.2783 35.76V33.12H40.7883V38.01H40.2783ZM42.8022 33.8V38H42.3122L42.2922 33.8H41.3022V33.33H42.2922V31.86H42.8022V33.33H43.8122V33.8H42.8022ZM48.4991 38.01V37.13C48.0525 37.7833 47.3758 38.11 46.4691 38.11C45.6958 38.11 45.0858 37.8633 44.6391 37.37C44.2191 36.9033 44.0091 36.3033 44.0091 35.57C44.0091 34.8167 44.2225 34.2067 44.6491 33.74C45.0958 33.2467 45.7158 33 46.5091 33C47.4025 33 48.0658 33.3167 48.4991 33.95V33.02H49.0091V38.01H48.4991ZM47.9891 34.05C47.6291 33.6633 47.1191 33.47 46.4591 33.47C45.8458 33.47 45.3591 33.6767 44.9991 34.09C44.6725 34.4767 44.5091 34.97 44.5091 35.57C44.5091 36.1767 44.6725 36.6667 44.9991 37.04C45.3458 37.44 45.8325 37.64 46.4591 37.64C47.0791 37.64 47.5725 37.4433 47.9391 37.05C48.3125 36.6567 48.4991 36.1633 48.4991 35.57C48.4991 34.93 48.3291 34.4233 47.9891 34.05ZM52.0037 38.13C50.517 38.13 49.7737 37.4633 49.7737 36.13H50.3037C50.3037 36.6567 50.4403 37.04 50.7137 37.28C50.987 37.52 51.4203 37.64 52.0137 37.64C52.4137 37.64 52.7437 37.5767 53.0037 37.45C53.3237 37.2833 53.4837 37.0367 53.4837 36.71C53.4837 36.31 53.1503 36.0333 52.4837 35.88C52.437 35.8667 52.1037 35.8133 51.4837 35.72C50.4837 35.5667 49.9837 35.1333 49.9837 34.42C49.9837 33.9533 50.1837 33.59 50.5837 33.33C50.9237 33.1033 51.3403 32.99 51.8337 32.99C53.267 32.99 53.9837 33.5833 53.9837 34.77H53.4437C53.4437 34.3167 53.3203 33.99 53.0737 33.79C52.827 33.5833 52.4303 33.48 51.8837 33.48C51.517 33.48 51.207 33.5533 50.9537 33.7C50.6603 33.8733 50.5137 34.1133 50.5137 34.42C50.5137 34.82 50.8403 35.0767 51.4937 35.19C51.667 35.2233 52.0203 35.2867 52.5537 35.38C53.527 35.5467 54.0137 35.99 54.0137 36.71C54.0137 37.2167 53.7937 37.5933 53.3537 37.84C53.0003 38.0333 52.5503 38.13 52.0037 38.13Z" fill="#4F4F4F"/>
</svg>
