<svg width="42" height="36" viewBox="0 0 42 36" fill="none" xmlns="http://www.w3.org/2000/svg">
<path d="M21 13C23.3941 13 25.3333 11.0608 25.3333 8.66667C25.3333 6.2725 23.3941 4.33334 21 4.33334C18.6058 4.33334 16.6666 6.2725 16.6666 8.66667C16.6666 11.0608 18.6058 13 21 13ZM21 15.1667C18.1075 15.1667 12.3333 16.6183 12.3333 19.5V21.6667H29.6666V19.5C29.6666 16.6183 23.8925 15.1667 21 15.1667Z" fill="#696969"/>
<path d="M14.4454 31.04H11.9154V34H11.4054V27.22H14.5554C16.202 27.22 17.0254 27.8667 17.0254 29.16C17.0254 29.8133 16.7454 30.3033 16.1854 30.63C15.7254 30.9033 15.1454 31.04 14.4454 31.04ZM14.6154 27.69H11.9154V30.57H14.6254C15.1387 30.57 15.5687 30.4567 15.9154 30.23C16.3087 29.9767 16.5054 29.62 16.5054 29.16C16.5054 28.18 15.8754 27.69 14.6154 27.69ZM17.8063 31.74C17.873 33.0067 18.543 33.64 19.8163 33.64C20.783 33.64 21.4196 33.2433 21.7263 32.45H22.2463C22.053 33.0767 21.723 33.5167 21.2563 33.77C20.8496 33.9967 20.363 34.11 19.7963 34.11C18.9763 34.11 18.3496 33.8733 17.9163 33.4C17.5096 32.96 17.3063 32.35 17.3063 31.57C17.3063 30.8033 17.5363 30.1833 17.9963 29.71C18.463 29.2367 19.0796 29 19.8463 29C20.613 29 21.2263 29.2167 21.6863 29.65C22.1463 30.0767 22.3763 30.6533 22.3763 31.38V31.73L17.8063 31.74ZM19.8463 29.47C19.2796 29.47 18.813 29.63 18.4463 29.95C18.0863 30.27 17.8763 30.71 17.8163 31.27H21.8163C21.783 30.71 21.5863 30.27 21.2263 29.95C20.873 29.63 20.413 29.47 19.8463 29.47ZM23.8302 30.27C23.5369 30.73 23.3902 31.32 23.3902 32.04V34H22.8802V29.11H23.3902V29.94C23.4902 29.7933 23.6169 29.6567 23.7702 29.53C24.2102 29.1767 24.7935 29 25.5202 29V29.47C24.7402 29.47 24.1769 29.7367 23.8302 30.27ZM27.0138 29.23V29.55H28.1238V30.03H27.0138V34.01H26.5038V30.03H25.7838V29.55H26.5038V29.23C26.5038 27.97 27.3505 27.34 29.0438 27.34V27.8C27.6905 27.8 27.0138 28.2767 27.0138 29.23ZM28.9698 28.23C28.8631 28.23 28.7831 28.1633 28.7298 28.03V27.33C28.7898 27.1967 28.8698 27.13 28.9698 27.13C29.0498 27.13 29.1398 27.19 29.2398 27.31V28.05C29.1465 28.17 29.0565 28.23 28.9698 28.23ZM28.7298 34V29.04H29.2398V34H28.7298ZM30.0872 34V27.22H30.5972V34H30.0872Z" fill="#4F4F4F"/>
</svg>
