<svg width="66" height="40" viewBox="0 0 66 40" fill="none" xmlns="http://www.w3.org/2000/svg">
<path fill-rule="evenodd" clip-rule="evenodd" d="M26.2227 9.03506C26.0254 9.78319 25.9473 10.4902 26.0254 11.1561C26.1446 11.8631 26.457 12.4921 27.0448 13.0429C27.6737 13.6307 28.5781 14.1445 29.951 14.5761C31.2869 15.0077 33.0545 15.3243 35.2948 15.5216H35.414L35.4551 15.5627L35.5332 15.6038C36.084 16.1546 36.4745 16.7013 36.6348 17.174C36.8732 17.7248 36.9102 18.2345 36.7129 18.7073C36.5567 19.18 36.2402 19.6116 35.7716 19.9651C35.3811 20.2775 34.9454 20.594 34.3575 20.8283C35.3811 21.4983 36.2813 21.967 37.1486 22.3205C38.0899 22.674 38.9573 22.8302 39.7424 22.8302C40.5686 22.8302 41.3126 22.674 41.9827 22.3986C42.7308 22.1232 43.3597 21.6915 43.9845 21.1818L44.1407 21.0626L44.338 21.1818L44.4572 21.2599L44.6134 21.338L44.5353 21.5353C44.3791 22.2424 44.2599 22.8713 44.2229 23.4221C44.2229 23.9729 44.264 24.4045 44.3791 24.7169C44.4983 24.9923 44.7327 25.1485 45.0081 25.2678C45.3616 25.3459 45.8343 25.3089 46.4221 25.1485C46.3029 24.9142 46.1056 24.5977 45.9494 24.2853C45.5548 23.5783 45.2013 22.7521 45.2013 22.3575C45.2013 22.2383 45.2013 22.1232 45.2424 22.0039C45.2424 21.8847 45.2835 21.8066 45.3205 21.6915C45.3616 21.6134 45.3986 21.4942 45.4767 21.4161C45.5178 21.338 45.5959 21.2599 45.674 21.1818C45.7521 21.1037 45.8302 21.0256 45.9494 20.9475C46.0275 20.9064 46.1467 20.8694 46.2248 20.8283C46.344 20.7913 46.4221 20.7502 46.5372 20.7091C46.6564 20.7091 46.7345 20.668 46.8496 20.668C46.9688 20.668 47.0839 20.7091 47.2031 20.7091C47.3223 20.7461 47.4004 20.7872 47.5155 20.8283C47.5936 20.8694 47.7128 20.9064 47.7909 20.9475C47.9101 21.0256 47.9882 21.1037 48.0663 21.1818C48.1855 21.338 48.3417 21.4942 48.4198 21.6915C48.4609 21.8108 48.4979 21.8889 48.4979 21.967C48.5391 22.0451 48.5391 22.0862 48.5391 22.1643V22.2835V22.3616C48.5391 23.1878 47.0469 25.5473 47.0469 25.5843C46.9277 25.7405 47.0058 25.7035 46.8126 25.7816L46.6153 25.8227C45.8672 26.02 45.2383 26.057 44.8066 25.9419C44.2969 25.7857 43.9434 25.4692 43.7461 25.0006C43.5488 24.6059 43.5118 24.0962 43.5118 23.5084C43.5529 23.1138 43.5899 22.7233 43.668 22.2917C43.1953 22.6082 42.6856 22.8836 42.1759 23.0768C41.4277 23.3522 40.6426 23.5495 39.7383 23.5495C38.8751 23.5084 37.8926 23.3522 36.8321 22.9617C35.8086 22.5671 34.7111 21.9382 33.4532 21.038L33.3751 20.9599L32.9805 20.6845L33.4121 20.5282L33.5313 20.4501C34.2794 20.1747 34.8261 19.8623 35.2578 19.5088C35.6524 19.1923 35.9278 18.8388 36.0429 18.5264C36.1621 18.1729 36.1621 17.8194 36.0018 17.4659C35.8456 17.0754 35.5291 16.6396 35.1386 16.208C32.8613 16.0107 31.0937 15.6572 29.6756 15.2256C28.2615 14.794 27.238 14.2021 26.531 13.5731C25.824 12.9072 25.4705 12.118 25.3513 11.2959C25.1951 10.4697 25.3513 9.60643 25.6267 8.7021V8.661C25.3924 8.30749 24.8785 7.44427 24.3688 6.49883C23.6659 5.18756 23 3.73241 23 2.98428C23 2.78698 23.0411 2.58967 23.0781 2.39647C23.1192 2.19916 23.1562 2.04296 23.2343 1.84565C23.3124 1.64834 23.3905 1.49214 23.5097 1.33594C23.6289 1.17974 23.7481 1.02354 23.9043 0.904328C24.0235 0.748126 24.1797 0.628919 24.3359 0.509712C24.5332 0.390505 24.6894 0.312404 24.8868 0.234303C25.0841 0.156202 25.2403 0.115096 25.4376 0.0781011C25.6308 0.0411058 25.8281 0 26.0254 0C26.2227 0 26.457 0.0411058 26.6132 0.0781011C26.8105 0.119207 27.0078 0.156202 27.201 0.234303C27.3983 0.312404 27.5545 0.390505 27.7107 0.509712C27.908 0.628919 28.0272 0.744016 28.1834 0.904328C28.4589 1.13863 28.6562 1.49214 28.8535 1.84565C28.8946 2.00185 28.9727 2.16217 29.0097 2.35536C29.0097 2.43347 29.0097 2.55267 29.0508 2.63077V2.86508V2.98428C29.0508 4.51753 26.3789 8.75965 26.3378 8.83775L26.2227 9.03506ZM26.0254 8.01564C26.1816 7.78133 26.3378 7.50592 26.5351 7.18941C26.7324 6.8359 26.9297 6.48239 27.127 6.08777C27.4805 5.42186 27.834 4.71484 28.0683 4.12291C28.2657 3.65431 28.3438 3.25969 28.3438 2.98428V2.94318C28.3438 2.82397 28.3438 2.66777 28.3027 2.51157C28.2615 2.39236 28.2246 2.23616 28.1834 2.11695C28.1053 1.96075 28.0642 1.84154 27.9861 1.72233C27.8669 1.56613 27.7888 1.48803 27.6737 1.36882C27.5545 1.24962 27.4394 1.17152 27.3202 1.09342C27.2051 1.02354 27.0448 0.945434 26.9297 0.863222C26.8105 0.822116 26.6543 0.785121 26.4981 0.744015C26.3419 0.70291 26.1857 0.70291 26.0254 0.70291C25.8692 0.70291 25.713 0.70291 25.5938 0.744015C25.4376 0.785121 25.2773 0.826227 25.1622 0.863222C25.0019 0.945434 24.8868 1.02354 24.7676 1.10164C24.6113 1.17974 24.4921 1.25784 24.414 1.37705C24.2948 1.49214 24.1797 1.57024 24.1016 1.73056C24.0194 1.84565 23.9413 1.96486 23.9043 2.12106C23.8262 2.24027 23.7851 2.39647 23.7481 2.51568C23.7481 2.67188 23.707 2.82808 23.707 2.98839C23.707 3.2638 23.8632 3.77351 24.0975 4.28323C24.3359 4.87104 24.6072 5.46296 24.9238 6.09188C25.1992 6.5646 25.4746 7.03321 25.7089 7.42782C25.8281 7.66213 25.9473 7.85943 26.0254 8.01564ZM46.8496 25.1074C46.9277 24.9882 47.0469 24.832 47.125 24.6758C47.2442 24.4785 47.3593 24.2812 47.4785 24.0469C47.6758 23.6934 47.832 23.2988 47.9882 22.9453C48.1074 22.711 48.1444 22.4726 48.1444 22.3533V22.3164C48.1444 22.2383 48.1444 22.1602 48.1033 22.0779C48.1033 21.9998 48.1033 21.9217 48.0622 21.8436C48.0211 21.7655 47.9841 21.6874 47.943 21.6463C47.9019 21.5682 47.8238 21.4901 47.7457 21.449C47.7087 21.3709 47.6265 21.3298 47.5895 21.2517C47.5114 21.2517 47.4333 21.1736 47.3552 21.1736C47.2771 21.1366 47.199 21.0955 47.1209 21.0955C47.0428 21.0544 46.9647 21.0544 46.8455 21.0544C46.7674 21.0544 46.6893 21.0544 46.6112 21.0955C46.5331 21.0955 46.455 21.1366 46.3769 21.1736C46.2988 21.1736 46.2207 21.2517 46.1426 21.2517C46.0645 21.3298 46.0234 21.3709 45.9453 21.449C45.9042 21.4901 45.8261 21.5682 45.7891 21.6463C45.748 21.6874 45.711 21.7655 45.6699 21.8436C45.6288 21.9217 45.6288 21.9998 45.5918 22.0779C45.5918 22.156 45.5918 22.2341 45.5918 22.3533C45.5918 22.5096 45.6699 22.748 45.7891 23.0604C45.9083 23.3728 46.0645 23.7263 46.2618 24.0428C46.418 24.3182 46.5372 24.5936 46.6934 24.7909C46.7304 24.9101 46.8085 25.0293 46.8496 25.1074Z" fill="#696969"/>
<path fill-rule="evenodd" clip-rule="evenodd" d="M46.8496 21.5723C47.125 21.5723 47.3593 21.6504 47.5155 21.8066C47.6717 22.0039 47.7498 22.2012 47.7498 22.4356C47.7498 22.711 47.6717 22.9083 47.5155 23.0645C47.3593 23.2618 47.1209 23.3399 46.8496 23.3399C46.6153 23.3399 46.3769 23.2618 46.2207 23.0645C46.0645 22.9083 45.9864 22.711 45.9864 22.4356C45.9864 22.2012 46.0645 22.0039 46.2207 21.8066C46.3769 21.6504 46.6153 21.5723 46.8496 21.5723Z" fill="#696969"/>
<path fill-rule="evenodd" clip-rule="evenodd" d="M47.3223 22.004C47.2031 21.8847 47.0469 21.8066 46.8496 21.8066C46.6934 21.8066 46.5372 21.8847 46.418 22.004C46.2988 22.1232 46.2207 22.2794 46.2207 22.4356C46.2207 22.6329 46.2988 22.7891 46.418 22.9083C46.5372 23.0275 46.6934 23.1056 46.8496 23.1056C47.0469 23.1056 47.2031 23.0275 47.3223 22.9083C47.4415 22.7891 47.5196 22.6329 47.5196 22.4356C47.5155 22.2794 47.4374 22.1191 47.3223 22.004Z" fill="#696969"/>
<path fill-rule="evenodd" clip-rule="evenodd" d="M26.8516 2.39647C26.6543 2.19916 26.3789 2.04296 26.0254 2.04296C25.7129 2.04296 25.4375 2.19916 25.1991 2.39647C25.0018 2.59378 24.8867 2.86919 24.8867 3.18159C24.8867 3.49811 25.0059 3.81051 25.2032 4.00782C25.4375 4.20513 25.7129 4.32022 26.0295 4.32022C26.383 4.32022 26.6584 4.20102 26.8557 4.00782C27.053 3.81051 27.2092 3.49811 27.2092 3.18159C27.2051 2.86919 27.0448 2.59378 26.8516 2.39647Z" fill="#696969"/>
<path d="M13.0635 32.72C12.5568 31.9867 11.7435 31.62 10.6235 31.62C9.66352 31.62 8.89685 31.89 8.32352 32.43C7.75685 32.97 7.47352 33.7 7.47352 34.62C7.47352 35.5267 7.74352 36.25 8.28352 36.79C8.83018 37.33 9.57352 37.6 10.5135 37.6C11.5868 37.6 12.4068 37.2267 12.9735 36.48L13.4135 36.76C12.7402 37.6333 11.7768 38.07 10.5235 38.07C9.43018 38.07 8.56352 37.7633 7.92352 37.15C7.28352 36.5367 6.96352 35.7067 6.96352 34.66C6.96352 33.5867 7.29352 32.7333 7.95352 32.1C8.61352 31.4667 9.50352 31.15 10.6235 31.15C11.9235 31.15 12.8802 31.5833 13.4935 32.45L13.0635 32.72ZM15.171 34.27C14.8777 34.73 14.731 35.32 14.731 36.04V38H14.221V33.11H14.731V33.94C14.831 33.7933 14.9577 33.6567 15.111 33.53C15.551 33.1767 16.1343 33 16.861 33V33.47C16.081 33.47 15.5177 33.7367 15.171 34.27ZM17.5846 35.74C17.6513 37.0067 18.3213 37.64 19.5946 37.64C20.5613 37.64 21.1979 37.2433 21.5046 36.45H22.0246C21.8313 37.0767 21.5013 37.5167 21.0346 37.77C20.6279 37.9967 20.1413 38.11 19.5746 38.11C18.7546 38.11 18.1279 37.8733 17.6946 37.4C17.2879 36.96 17.0846 36.35 17.0846 35.57C17.0846 34.8033 17.3146 34.1833 17.7746 33.71C18.2413 33.2367 18.8579 33 19.6246 33C20.3913 33 21.0046 33.2167 21.4646 33.65C21.9246 34.0767 22.1546 34.6533 22.1546 35.38V35.73L17.5846 35.74ZM19.6246 33.47C19.0579 33.47 18.5913 33.63 18.2246 33.95C17.8646 34.27 17.6546 34.71 17.5946 35.27H21.5946C21.5613 34.71 21.3646 34.27 21.0046 33.95C20.6513 33.63 20.1913 33.47 19.6246 33.47ZM26.8585 38.01V37.13C26.4118 37.7833 25.7352 38.11 24.8285 38.11C24.0552 38.11 23.4452 37.8633 22.9985 37.37C22.5785 36.9033 22.3685 36.3033 22.3685 35.57C22.3685 34.8167 22.5818 34.2067 23.0085 33.74C23.4552 33.2467 24.0752 33 24.8685 33C25.7618 33 26.4252 33.3167 26.8585 33.95V33.02H27.3685V38.01H26.8585ZM26.3485 34.05C25.9885 33.6633 25.4785 33.47 24.8185 33.47C24.2052 33.47 23.7185 33.6767 23.3585 34.09C23.0318 34.4767 22.8685 34.97 22.8685 35.57C22.8685 36.1767 23.0318 36.6667 23.3585 37.04C23.7052 37.44 24.1918 37.64 24.8185 37.64C25.4385 37.64 25.9318 37.4433 26.2985 37.05C26.6718 36.6567 26.8585 36.1633 26.8585 35.57C26.8585 34.93 26.6885 34.4233 26.3485 34.05ZM29.253 34.27C28.9597 34.73 28.813 35.32 28.813 36.04V38H28.303V33.11H28.813V33.94C28.913 33.7933 29.0397 33.6567 29.193 33.53C29.633 33.1767 30.2164 33 30.943 33V33.47C30.163 33.47 29.5997 33.7367 29.253 34.27ZM39.5118 34.69C40.2118 34.9633 40.5618 35.4933 40.5618 36.28V38H40.0518V36.3C40.0518 35.4133 39.4318 34.97 38.1918 34.97H35.5218V38H35.0118V31.22H38.2818C39.8685 31.22 40.6618 31.8133 40.6618 33C40.6618 33.8267 40.2785 34.39 39.5118 34.69ZM38.3018 31.69H35.5218V34.48H38.1418C38.7151 34.48 39.1751 34.3733 39.5218 34.16C39.9418 33.9067 40.1518 33.53 40.1518 33.03C40.1518 32.1367 39.5351 31.69 38.3018 31.69ZM45.2978 38.01V37.33C44.9045 37.85 44.3078 38.11 43.5078 38.11C42.8811 38.11 42.3845 37.96 42.0178 37.66C41.6311 37.3333 41.4378 36.8767 41.4378 36.29V33.12H41.9478V36.28C41.9478 37.1867 42.4678 37.64 43.5078 37.64C44.1078 37.64 44.5611 37.4667 44.8678 37.12C45.1545 36.7933 45.2978 36.34 45.2978 35.76V33.12H45.8078V38.01H45.2978ZM47.8217 33.8V38H47.3317L47.3117 33.8H46.3217V33.33H47.3117V31.86H47.8217V33.33H48.8317V33.8H47.8217ZM53.5187 38.01V37.13C53.072 37.7833 52.3953 38.11 51.4887 38.11C50.7153 38.11 50.1053 37.8633 49.6587 37.37C49.2387 36.9033 49.0287 36.3033 49.0287 35.57C49.0287 34.8167 49.242 34.2067 49.6687 33.74C50.1153 33.2467 50.7353 33 51.5287 33C52.422 33 53.0853 33.3167 53.5187 33.95V33.02H54.0287V38.01H53.5187ZM53.0087 34.05C52.6487 33.6633 52.1387 33.47 51.4787 33.47C50.8653 33.47 50.3787 33.6767 50.0187 34.09C49.692 34.4767 49.5287 34.97 49.5287 35.57C49.5287 36.1767 49.692 36.6667 50.0187 37.04C50.3653 37.44 50.852 37.64 51.4787 37.64C52.0987 37.64 52.592 37.4433 52.9587 37.05C53.332 36.6567 53.5187 36.1633 53.5187 35.57C53.5187 34.93 53.3487 34.4233 53.0087 34.05ZM57.0232 38.13C55.5365 38.13 54.7932 37.4633 54.7932 36.13H55.3232C55.3232 36.6567 55.4599 37.04 55.7332 37.28C56.0065 37.52 56.4399 37.64 57.0332 37.64C57.4332 37.64 57.7632 37.5767 58.0232 37.45C58.3432 37.2833 58.5032 37.0367 58.5032 36.71C58.5032 36.31 58.1699 36.0333 57.5032 35.88C57.4565 35.8667 57.1232 35.8133 56.5032 35.72C55.5032 35.5667 55.0032 35.1333 55.0032 34.42C55.0032 33.9533 55.2032 33.59 55.6032 33.33C55.9432 33.1033 56.3599 32.99 56.8532 32.99C58.2865 32.99 59.0032 33.5833 59.0032 34.77H58.4632C58.4632 34.3167 58.3399 33.99 58.0932 33.79C57.8465 33.5833 57.4499 33.48 56.9032 33.48C56.5365 33.48 56.2265 33.5533 55.9732 33.7C55.6799 33.8733 55.5332 34.1133 55.5332 34.42C55.5332 34.82 55.8599 35.0767 56.5132 35.19C56.6865 35.2233 57.0399 35.2867 57.5732 35.38C58.5465 35.5467 59.0332 35.99 59.0332 36.71C59.0332 37.2167 58.8132 37.5933 58.3732 37.84C58.0199 38.0333 57.5699 38.13 57.0232 38.13Z" fill="#4F4F4F"/>
</svg>
