<svg width="67" height="40" viewBox="0 0 67 40" fill="none" xmlns="http://www.w3.org/2000/svg">
<path d="M40.5 17.42C39.6767 17.42 38.94 17.745 38.3767 18.2542L30.6525 13.7583C30.7067 13.5092 30.75 13.26 30.75 13C30.75 12.74 30.7067 12.4908 30.6525 12.2417L38.29 7.78916C38.875 8.33083 39.6442 8.66666 40.5 8.66666C42.2983 8.66666 43.75 7.215 43.75 5.41666C43.75 3.61833 42.2983 2.16666 40.5 2.16666C38.7017 2.16666 37.25 3.61833 37.25 5.41666C37.25 5.67666 37.2933 5.92583 37.3475 6.175L29.71 10.6275C29.125 10.0858 28.3558 9.75 27.5 9.75C25.7017 9.75 24.25 11.2017 24.25 13C24.25 14.7983 25.7017 16.25 27.5 16.25C28.3558 16.25 29.125 15.9142 29.71 15.3725L37.4233 19.8792C37.3692 20.1067 37.3367 20.345 37.3367 20.5833C37.3367 22.3275 38.7558 23.7467 40.5 23.7467C42.2442 23.7467 43.6633 22.3275 43.6633 20.5833C43.6633 18.8392 42.2442 17.42 40.5 17.42Z" fill="#696969"/>
<path d="M18.7344 32.72C18.2277 31.9867 17.4144 31.62 16.2944 31.62C15.3344 31.62 14.5677 31.89 13.9944 32.43C13.4277 32.97 13.1444 33.7 13.1444 34.62C13.1444 35.5267 13.4144 36.25 13.9544 36.79C14.5011 37.33 15.2444 37.6 16.1844 37.6C17.2577 37.6 18.0777 37.2267 18.6444 36.48L19.0844 36.76C18.4111 37.6333 17.4477 38.07 16.1944 38.07C15.1011 38.07 14.2344 37.7633 13.5944 37.15C12.9544 36.5367 12.6344 35.7067 12.6344 34.66C12.6344 33.5867 12.9644 32.7333 13.6244 32.1C14.2844 31.4667 15.1744 31.15 16.2944 31.15C17.5944 31.15 18.5511 31.5833 19.1644 32.45L18.7344 32.72ZM22.1819 38.11C21.3886 38.11 20.7586 37.8733 20.2919 37.4C19.8319 36.9267 19.6019 36.3133 19.6019 35.56C19.6019 34.78 19.8386 34.16 20.3119 33.7C20.7919 33.2333 21.4219 33 22.2019 33C22.9819 33 23.6052 33.2333 24.0719 33.7C24.5452 34.16 24.7819 34.78 24.7819 35.56C24.7819 36.34 24.5419 36.96 24.0619 37.42C23.5886 37.88 22.9619 38.11 22.1819 38.11ZM23.7219 34.05C23.3552 33.6633 22.8452 33.47 22.1919 33.47C21.5519 33.47 21.0452 33.66 20.6719 34.04C20.2986 34.4133 20.1119 34.92 20.1119 35.56C20.1119 36.1933 20.2986 36.7 20.6719 37.08C21.0519 37.4533 21.5586 37.64 22.1919 37.64C22.8252 37.64 23.3286 37.4533 23.7019 37.08C24.0819 36.7 24.2719 36.1933 24.2719 35.56C24.2719 34.9333 24.0886 34.43 23.7219 34.05ZM32.1311 38V34.81C32.1311 33.9167 31.6978 33.47 30.8311 33.47C30.3511 33.47 29.9678 33.6033 29.6811 33.87C29.3945 34.1367 29.2511 34.4933 29.2511 34.94V38H28.7411V34.81C28.7411 33.9167 28.2978 33.47 27.4111 33.47C26.9111 33.47 26.5178 33.6533 26.2311 34.02C25.9778 34.3533 25.8511 34.7667 25.8511 35.26V38H25.3411V33.11H25.8511V33.75C26.2245 33.25 26.7778 33 27.5111 33C28.2645 33 28.7878 33.2867 29.0811 33.86C29.4145 33.2867 29.9911 33 30.8111 33C32.0311 33 32.6411 33.5733 32.6411 34.72V38H32.1311ZM36.015 38.18C35.1283 38.18 34.465 37.86 34.025 37.22V39.68H33.515V33.11H34.025V33.96C34.465 33.32 35.125 33 36.005 33C36.7983 33 37.4183 33.2433 37.865 33.73C38.285 34.1967 38.495 34.81 38.495 35.57C38.495 36.3633 38.2783 36.9967 37.845 37.47C37.4116 37.9433 36.8016 38.18 36.015 38.18ZM37.505 34.09C37.1583 33.6767 36.6783 33.47 36.065 33.47C35.445 33.47 34.9483 33.6633 34.575 34.05C34.2083 34.43 34.025 34.9333 34.025 35.56C34.025 36.2267 34.1883 36.7433 34.515 37.11C34.8616 37.51 35.375 37.71 36.055 37.71C36.6816 37.71 37.1683 37.5033 37.515 37.09C37.835 36.7033 37.995 36.2 37.995 35.58C37.995 34.9733 37.8316 34.4767 37.505 34.09ZM43.3595 38.01V37.13C42.9128 37.7833 42.2362 38.11 41.3295 38.11C40.5562 38.11 39.9462 37.8633 39.4995 37.37C39.0795 36.9033 38.8695 36.3033 38.8695 35.57C38.8695 34.8167 39.0828 34.2067 39.5095 33.74C39.9562 33.2467 40.5762 33 41.3695 33C42.2628 33 42.9262 33.3167 43.3595 33.95V33.02H43.8695V38.01H43.3595ZM42.8495 34.05C42.4895 33.6633 41.9795 33.47 41.3195 33.47C40.7062 33.47 40.2195 33.6767 39.8595 34.09C39.5328 34.4767 39.3695 34.97 39.3695 35.57C39.3695 36.1767 39.5328 36.6667 39.8595 37.04C40.2062 37.44 40.6928 37.64 41.3195 37.64C41.9395 37.64 42.4328 37.4433 42.7995 37.05C43.1728 36.6567 43.3595 36.1633 43.3595 35.57C43.3595 34.93 43.1895 34.4233 42.8495 34.05ZM45.754 34.27C45.4607 34.73 45.314 35.32 45.314 36.04V38H44.804V33.11H45.314V33.94C45.414 33.7933 45.5407 33.6567 45.694 33.53C46.134 33.1767 46.7174 33 47.444 33V33.47C46.664 33.47 46.1007 33.7367 45.754 34.27ZM49.1176 33.8V38H48.6276L48.6076 33.8H47.6176V33.33H48.6076V31.86H49.1176V33.33H50.1276V33.8H49.1176ZM50.8546 32.23C50.7479 32.23 50.6679 32.1633 50.6146 32.03V31.33C50.6746 31.1967 50.7546 31.13 50.8546 31.13C50.9346 31.13 51.0246 31.19 51.1246 31.31V32.05C51.0312 32.17 50.9412 32.23 50.8546 32.23ZM50.6146 38V33.04H51.1246V38H50.6146ZM52.922 34.27C52.6287 34.73 52.482 35.32 52.482 36.04V38H51.972V33.11H52.482V33.94C52.582 33.7933 52.7087 33.6567 52.862 33.53C53.302 33.1767 53.8853 33 54.612 33V33.47C53.832 33.47 53.2687 33.7367 52.922 34.27Z" fill="#4F4F4F"/>
</svg>
